<svg id="a697cdf7-92de-4744-80a4-bc7e5222b5f8" data-name="Layer 1" xmlns="http://www.w3.org/2000/svg" width="200" height="149
" viewBox="0 0 580 432.2" >
  <defs>
    <style>
      

      .sombra {
        fill: #ababab;
      }

      .a1583e77-c4af-40a5-b5d7-c6ac15a33f7b {
        fill: #f0f4f7;
      }

      .f4e70e26-9310-4567-ae74-37ee7f419517 {
        fill: #d6dee3;
      }

      .f9e8721b-2e75-4113-a6a4-2636887e828a {
        fill: #4a4a4c;
      }

      .a634f588-2883-461d-a79d-d410f5d7991c {
        fill: #a6a8ab;
      }

      .adc26054-832e-4364-a8e8-7de77e65452b {
        fill: #fff;
      }

      .b5ddea2d-a03b-4bfe-b221-123b7a382a1b {
        fill: #aab7b2;
      }

      .b9506d37-a544-4691-8a40-aaddbd30177a {
        fill: #575a67;
      }

      .adeeb85a-d5fe-4e84-a953-512851686440 {
        fill: #cc3b3f;
      }

      .b60954c0-b33b-48d1-862f-db39e10b7ed4 {
        fill: #ef5357;
      }

      .ec02b1a4-3f26-4828-b9d7-312293805d9e {
        fill: #00ca4d;
      }

      .a6ec21c5-c803-4198-b051-8998f42439e7 {
        fill: #00aa45;
      }

      .b8bd48d6-648c-416c-ba01-ad4a95e4b027 {
        fill: #00784a;
      }
    </style>
  </defs>
  <title>dadoPhone</title>
  <g>
    <ellipse class="sombra" cx="284.3" cy="386.8" rx="284.3" ry="45.4"/>
    <path class="a1583e77-c4af-40a5-b5d7-c6ac15a33f7b" d="M536.2,104.5c-17.1-28.9-91.4-72.3-100.8-77.7v-.3l-1-.2h0C237.8-10.2,75.7,9.5,75.7,9.5S55.5,214.9,52.8,370.9C183.3,387.3,409,395.7,409,395.7v-.3c9.6-2.3,79.9-19.2,102.6-29.1C527,283.7,536.2,104.5,536.2,104.5Z"/>
    <path class="f4e70e26-9310-4567-ae74-37ee7f419517" d="M403.8,73.6s-42,165.3-159.7,233S52.8,370.9,52.8,370.9,312.1,400.5,408,395.6C420.8,275.3,430.3,26,430.3,26L408,22.1S415.4,37.6,403.8,73.6Z"/>
    <path class="f4e70e26-9310-4567-ae74-37ee7f419517" d="M521.9,93.4s-.6,106-40.8,171.5S408,392.7,408,392.7l103.7-26.4s22.8-212.5,24.5-264.5A36.5,36.5,0,0,0,521.9,93.4Z"/>
    <path class="f9e8721b-2e75-4113-a6a4-2636887e828a" d="M539.8,102.3c-17.2-28.9-87.3-70.4-101.1-78.4a4.1,4.1,0,0,0-2.5-1.5l-1.1-.2H435A1352,1352,0,0,0,189,0C120,0,75.6,5.3,75.2,5.4a4.1,4.1,0,0,0-3.6,3.7c-.2,2-20.3,207.3-23,361.8a4.3,4.3,0,0,0,3.7,4.2c129.2,16.2,354.3,24.7,356.6,24.7h.1a4,4,0,0,0,2.4-.7c13.7-3.3,79.7-19.3,102-29a3.9,3.9,0,0,0,2.4-3.1c15.2-81.8,24.5-260.5,24.6-262.3A4.8,4.8,0,0,0,539.8,102.3ZM79.5,13.3c11.5-1.2,51.7-5,109.5-5A1342.8,1342.8,0,0,1,430,29.7L404.1,391.3C370.2,390,175.5,381.8,57,367.2,59.7,224.5,76.9,40.4,79.5,13.3ZM508,363.3c-21.2,8.6-74.9,21.9-94.1,26.6,3.5-28.7,17.6-154.4,25.4-355.9,20,11.8,77.1,47.1,92.7,71.5C531.1,121.7,522.1,284.8,508,363.3Z"/>
    <path class="a634f588-2883-461d-a79d-d410f5d7991c" d="M485.9,344.2c-11.7-.7-20.3-15.4-19.2-32.8s11.4-31,23.1-30.3S510,296.5,508.9,314,497.5,344.9,485.9,344.2Z"/>
    <path class="a634f588-2883-461d-a79d-d410f5d7991c" d="M475.3,248.4c-11.7-.7-20.2-15.4-19.2-32.8s11.4-31,23.1-30.3,20.2,15.4,19.1,32.9S486.9,249.1,475.3,248.4Z"/>
    <path class="a634f588-2883-461d-a79d-d410f5d7991c" d="M457.9,136.7c-11.7-.7-20.3-15.4-19.2-32.9s11.4-30.9,23.1-30.2S482,89,480.9,106.4,469.5,137.4,457.9,136.7Z"/>
    <path class="a634f588-2883-461d-a79d-d410f5d7991c" d="M388.7,73.6a33.2,33.2,0,1,1-33.2-33.3A33.2,33.2,0,0,1,388.7,73.6Z"/>
    <path class="a634f588-2883-461d-a79d-d410f5d7991c" d="M172,63.9a33.2,33.2,0,1,1-33.2-33.3A33.2,33.2,0,0,1,172,63.9Z"/>
    <circle class="a634f588-2883-461d-a79d-d410f5d7991c" cx="336.2" cy="324" r="33.2" transform="translate(5.8 654) rotate(-88.9)"/>
    <circle class="a634f588-2883-461d-a79d-d410f5d7991c" cx="127.3" cy="311" r="33.2" transform="translate(-5 2.1) rotate(-0.9)"/>
    <path class="f9e8721b-2e75-4113-a6a4-2636887e828a" d="M355.5,40.3h6.9l2.9.5,1.5.4,1.6.4,1.7.7,1.7.7,1.8.9.9.4.9.6a25.3,25.3,0,0,1,3.5,2.5,34.4,34.4,0,0,1,6.3,6.8l1.4,2.1,1.2,2.2a3.7,3.7,0,0,0,.5,1.1l.5,1.2.9,2.4a25,25,0,0,0,.7,2.6V67l.2,1.3.2,1.3a6.2,6.2,0,0,1,.1,1.3v2.5h0v3.9l-.2,1.3-.3,1.4v1.3a18.2,18.2,0,0,0-.7,2.5l-.9,2.4-.5,1.2a5.4,5.4,0,0,0-.5,1.1l-1.2,2.2-1.4,2.1a35,35,0,0,1-6.3,6.9,37.9,37.9,0,0,1-3.5,2.5l-.9.5-.9.5-1.7.9-1.8.7a11.5,11.5,0,0,1-1.7.6l-1.6.5-1.5.3-2.9.5-2.4.2h-4.5l1.2-.2,1.3-.2.9-.2,1-.3,2.2-.5,2.6-.9,1.4-.6a6.1,6.1,0,0,1,1.4-.7l3-1.6,1.4-1.1.8-.5.7-.5a35.8,35.8,0,0,0,2.9-2.6,33.3,33.3,0,0,0,5.1-6.5,34,34,0,0,0,3.5-8,16,16,0,0,0,.5-2.1l.2-.6v-.5l.2-1.1.2-1V75.9l.2-2.5h-.1V70.2l-.2-1.1-.2-1.1v-.6l-.2-.5a14.2,14.2,0,0,0-.5-2.2,35.9,35.9,0,0,0-3.5-8,33.3,33.3,0,0,0-5.1-6.5,22.6,22.6,0,0,0-2.9-2.5c-.2-.3-.5-.4-.7-.6l-.8-.5-1.4-1-3-1.7-1.4-.6a8.4,8.4,0,0,0-1.4-.6l-2.6-.9-2.2-.6-1-.3h-.8l-1.4-.3Z"/>
    <path class="f9e8721b-2e75-4113-a6a4-2636887e828a" d="M138.8,30.6h7l2.8.5,1.5.4,1.7.4,1.6.7,1.8.7a14,14,0,0,1,1.7.9l.9.4.9.5a39.5,39.5,0,0,1,3.5,2.6,34.8,34.8,0,0,1,6.4,6.8,23.9,23.9,0,0,0,1.3,2.1l1.2,2.2.5,1.1.5,1.2a23.4,23.4,0,0,1,.9,2.4c.2.9.5,1.7.7,2.6l.2.6v.6l.2,1.3.2,1.3a5.3,5.3,0,0,0,.1,1.3v2.5h0v3.9l-.2,1.3-.2,1.4V71l-.2.7c-.2.8-.5,1.6-.7,2.5a23.4,23.4,0,0,1-.9,2.4l-.4,1.2-.6,1.1-1.2,2.2-1.3,2.1a32.6,32.6,0,0,1-6.4,6.9,28,28,0,0,1-3.5,2.5l-.9.5-.9.5-1.7.9-1.8.7-1.6.6-1.7.4a4.2,4.2,0,0,1-1.5.4l-2.8.5-2.4.2h-4.6l1.2-.2,1.4-.2.8-.2,1-.3,2.3-.5,2.5-.9,1.4-.6,1.4-.7,3-1.6,1.5-1.1.7-.5.7-.5a35.8,35.8,0,0,0,2.9-2.6,29.9,29.9,0,0,0,5.1-6.5,27.4,27.4,0,0,0,3.5-8l.6-2.1V68.4l.2-1V63.7h0v-2c-.1-.4,0-.8-.1-1.1l-.2-1.1V57.2l-.6-2.2a31.6,31.6,0,0,0-3.4-8,33.7,33.7,0,0,0-5.2-6.5,31.5,31.5,0,0,0-2.8-2.5l-.8-.6-.7-.5-1.5-1-3-1.7-1.4-.6A8.4,8.4,0,0,0,148,33l-2.5-.9-2.3-.6-.9-.3h-.9l-1.4-.3Z"/>
    <path class="f9e8721b-2e75-4113-a6a4-2636887e828a" d="M336.2,290.8h4.5l2.5.2,2.8.5a8,8,0,0,1,1.5.3l1.7.5,1.6.6,1.8.7,1.7.9.9.5.9.5a28,28,0,0,1,3.5,2.5,30.3,30.3,0,0,1,6.4,6.9l1.3,2a25.3,25.3,0,0,1,1.2,2.3l.6,1.1.4,1.2a23.4,23.4,0,0,1,.9,2.4l.7,2.5.2.6v.7l.2,1.3.2,1.3c.1.4,0,.9.1,1.3v2.5h0v3.2a1.3,1.3,0,0,0-.1.6l-.2,1.4-.2,1.3v.7l-.2.6c-.2.9-.5,1.7-.7,2.5a18.4,18.4,0,0,1-.9,2.5l-.4,1.1-.6,1.2a23.9,23.9,0,0,1-1.2,2.2l-1.3,2.1a32,32,0,0,1-6.4,6.8,20.5,20.5,0,0,1-3.5,2.5l-.9.6-.9.4a14,14,0,0,1-1.7.9l-1.7.7-1.7.7-1.7.4-1.5.4-2.8.5h-7l1.2-.3,1.4-.2h.9l.9-.3,2.3-.6,2.5-.9a8.4,8.4,0,0,0,1.4-.6l1.4-.6,3-1.7,1.5-1,.7-.5.8-.6a22.7,22.7,0,0,0,2.8-2.6,33,33,0,0,0,5.2-6.4,35.9,35.9,0,0,0,3.5-8,22.5,22.5,0,0,1,.5-2.2v-2.1l.2-1.1a1.8,1.8,0,0,1,.1-.6v-3h0v-2.1a4.9,4.9,0,0,0-.1-1.2l-.2-1.1v-2.2a14.2,14.2,0,0,1-.5-2.2,35.2,35.2,0,0,0-3.5-7.9,33.7,33.7,0,0,0-5.2-6.5,34.5,34.5,0,0,0-2.8-2.6l-.8-.5-.7-.6-1.5-1c-1-.5-2-1.2-3-1.6l-1.4-.7-1.4-.6-2.5-.9-2.3-.6-.9-.2-.9-.2-1.4-.2Z"/>
    <path class="f9e8721b-2e75-4113-a6a4-2636887e828a" d="M127.3,277.8h4.5l2.4.2,2.8.4,1.6.4,1.6.5a11.5,11.5,0,0,1,1.7.6l1.7.7,1.8.9.9.5.8.5a28,28,0,0,1,3.5,2.5,30.3,30.3,0,0,1,6.4,6.9l1.3,2a16.7,16.7,0,0,1,1.2,2.3l.6,1.1.5,1.2a22.5,22.5,0,0,1,.8,2.4,23.3,23.3,0,0,1,.7,2.5l.2.6v.7l.2,1.3.2,1.3a5.7,5.7,0,0,1,.1,1.3v2.5h.1l-.2,2.5v.6a1.3,1.3,0,0,1-.1.6l-.2,1.4-.2,1.3v.7l-.2.6-.6,2.5-.9,2.5-.5,1.1-.6,1.2a23.9,23.9,0,0,1-1.2,2.2l-1.3,2.1a32,32,0,0,1-6.4,6.8,20.5,20.5,0,0,1-3.5,2.5l-.8.6-.9.4-1.8.9-1.7.7a11.5,11.5,0,0,1-1.7.6l-1.6.5-1.6.4-2.8.5h-6.9l1.1-.2,1.4-.2h.9l1-.3,2.2-.6,2.6-.9,1.3-.6,1.5-.7,2.9-1.6,1.5-1,.8-.5.7-.6a34,34,0,0,0,2.9-2.6,32.6,32.6,0,0,0,5.1-6.4,35.9,35.9,0,0,0,3.5-8c.2-.7.3-1.5.5-2.2v-1.1l.2-1v-1.1a1.3,1.3,0,0,0,.1-.6v-3h0v-2.1a4.9,4.9,0,0,0-.1-1.2v-1.1l-.2-1.1v-1.1c-.2-.7-.3-1.4-.5-2.2a38.1,38.1,0,0,0-3.5-8,32.6,32.6,0,0,0-5.1-6.4c-.9-1-2-1.7-2.9-2.6l-.7-.6-.8-.5-1.5-1-2.9-1.6-1.5-.7-1.3-.6-2.6-.9-2.2-.6-1-.2-.9-.2-1.4-.2Z"/>
    <path class="f9e8721b-2e75-4113-a6a4-2636887e828a" d="M489.8,281.1h.9a14.8,14.8,0,0,1,2.7.2,13.3,13.3,0,0,1,4.1,1.4,25.4,25.4,0,0,1,4.7,3.3,27.6,27.6,0,0,1,4.1,5.3,38.5,38.5,0,0,1,3.2,6.8,26.6,26.6,0,0,1,1,3.8,27.9,27.9,0,0,1,.7,4,28.3,28.3,0,0,1,.3,4.1,14.8,14.8,0,0,1,.1,2.1c0,.3-.1.7-.1,1v1.1c-.1.6-.1,1.2-.2,1.9s-.2,1.5-.3,2.1-.5,2.7-.8,4a22.2,22.2,0,0,1-1.2,3.9,23.9,23.9,0,0,1-1.5,3.7,30.4,30.4,0,0,1-3.9,6.3,27.2,27.2,0,0,1-4.8,4.8,22.4,22.4,0,0,1-5,2.7,15.8,15.8,0,0,1-4.3.9,11,11,0,0,1-2.7-.1l-.9-.2h.9l1.1-.2.7-.2.8-.2a18.2,18.2,0,0,0,7.4-4.9,25.3,25.3,0,0,0,3.6-4.7,42,42,0,0,0,3-6,45,45,0,0,0,2-6.8l.6-3.6c.1-.6.1-1.2.2-1.8s.1-1.3.2-1.9V312a12,12,0,0,0,0-1.9c0-1.2,0-2.4-.1-3.7a41,41,0,0,0-1.2-7,42.6,42.6,0,0,0-2.2-6.3,21.4,21.4,0,0,0-3-5.1,17.9,17.9,0,0,0-6.8-5.7c-.2-.2-.5-.2-.7-.3l-.6-.3-1.1-.3Z"/>
    <path class="f9e8721b-2e75-4113-a6a4-2636887e828a" d="M479.2,185.3h.9a16.3,16.3,0,0,1,2.8.2,14.2,14.2,0,0,1,4.1,1.4,22,22,0,0,1,4.6,3.3,32.7,32.7,0,0,1,4.2,5.3,38.2,38.2,0,0,1,3.1,6.8c.4,1.3.8,2.5,1.1,3.8a27.6,27.6,0,0,1,.6,4c.2,1.4.3,2.7.4,4.1v2.1a3.8,3.8,0,0,1-.1,1v1.1c-.1.6-.1,1.2-.2,1.9s-.1,1.5-.2,2.1a25.9,25.9,0,0,1-.9,4,36.4,36.4,0,0,1-1.1,3.9L497,234a35.7,35.7,0,0,1-4,6.3,23.6,23.6,0,0,1-4.8,4.7,19.5,19.5,0,0,1-5,2.8,15.1,15.1,0,0,1-4.2.9,11.9,11.9,0,0,1-2.8-.1l-.9-.2h.9l1.1-.2.7-.2.8-.2a18.2,18.2,0,0,0,7.4-4.9,25.3,25.3,0,0,0,3.6-4.7,33.6,33.6,0,0,0,3-6,45,45,0,0,0,2-6.8l.6-3.6a11,11,0,0,0,.2-1.8c.1-.6.1-1.3.2-1.9v-.9c0-.3.1-.6.1-.9v-1.9c0-1.2-.1-2.5-.2-3.7a41,41,0,0,0-1.2-7,42.3,42.3,0,0,0-2.1-6.3,31.1,31.1,0,0,0-3-5.1,18.1,18.1,0,0,0-6.9-5.7.9.9,0,0,0-.7-.3l-.6-.3-1.1-.3Z"/>
    <path class="f9e8721b-2e75-4113-a6a4-2636887e828a" d="M461.8,73.6h.9a10,10,0,0,1,2.7.3,13.3,13.3,0,0,1,4.1,1.4,22,22,0,0,1,4.6,3.3,24.5,24.5,0,0,1,4.2,5.3,32.8,32.8,0,0,1,3.2,6.8c.4,1.2.7,2.5,1,3.8s.5,2.6.7,4a27.3,27.3,0,0,1,.3,4.1,13.4,13.4,0,0,1,0,2v2.1c-.1.7-.1,1.3-.2,2l-.3,2.1c-.2,1.4-.5,2.7-.8,4a29.1,29.1,0,0,1-1.2,3.9,22.8,22.8,0,0,1-1.5,3.6,31.2,31.2,0,0,1-3.9,6.4,23.6,23.6,0,0,1-4.8,4.7,19.5,19.5,0,0,1-5,2.8,20.7,20.7,0,0,1-4.3.9h-2.7l-.9-.2h.9l1.1-.2.7-.2.7-.2a18.8,18.8,0,0,0,7.5-4.9,25.3,25.3,0,0,0,3.6-4.7,33.4,33.4,0,0,0,2.9-6,45.1,45.1,0,0,0,2.1-6.8l.6-3.6c.1-.6.1-1.2.2-1.8a12.7,12.7,0,0,0,.1-2v-1.8a10.8,10.8,0,0,0,0-1.8c0-1.3,0-2.5-.1-3.7a39.4,39.4,0,0,0-1.2-7,35.8,35.8,0,0,0-2.2-6.3,31.1,31.1,0,0,0-3-5.1,19.1,19.1,0,0,0-6.8-5.8l-.7-.3-.7-.2-1-.4Z"/>
    <path class="adc26054-832e-4364-a8e8-7de77e65452b" d="M82.6,194.9l-.3-3.4c-.1-2.3-.4-5.6-.6-9.8-.5-8.4-1-20.4-1.2-34.9-.1-7.2-.2-15-.1-23.3s.3-17,.7-26c.2-4.5.5-9.1.8-13.8.1-2.3.3-4.6.5-7l.6-7.1c.3-2.4.5-4.8.8-7.2s.3-2.4.4-3.6.3-2.4.5-3.6l.6-3.7.3-1.8.3-1.9c.3-1.2.5-2.4.8-3.7s.6-2.5,1-3.8l.3-1v-.7h0c-.1.2.2-.5.2-.4l.3-.9.2-.4.3-.6a9.1,9.1,0,0,1,.7-1.4l.6-1a17.3,17.3,0,0,1,1.5-2,26.7,26.7,0,0,1,6.8-5.9,38.4,38.4,0,0,1,7.2-3.8,53.2,53.2,0,0,1,7.3-2.6,113.4,113.4,0,0,1,14.4-3.2q7.2-1.1,14.1-1.5a235.3,235.3,0,0,1,26.4-.4c8.4.3,16.2,1,23.4,1.9s13.9,1.9,19.7,3.1,10.8,2.4,14.8,3.5,7.2,2.4,9.4,3.2l2.4,1,.8.3-3.4-.7c-2.2-.4-5.5-.9-9.7-1.3s-9.2-1-15-1.3-12.3-.7-19.4-.8-14.9,0-23,.3-16.7.9-25.4,1.9c-4.3.6-8.7,1.2-13.1,2.1L123.2,29c-2.2.5-4.3,1.1-6.4,1.8A42.6,42.6,0,0,0,105.4,36a15.3,15.3,0,0,0-4,3.5l-.7.9a.8.8,0,0,0-.2.4l-.2.3h-.1l-.2.5-.3.8c0,.1.2-.5.1-.2h0V43l-.2.7a29.9,29.9,0,0,0-.8,3.2,32,32,0,0,0-.7,3.3l-.4,1.7-.3,1.7c-.2,1.1-.4,2.2-.5,3.4-.7,4.6-1.4,9.2-1.9,13.9s-1.1,9.2-1.6,13.8-.9,9.1-1.3,13.5c-1.6,17.9-3.1,34.6-4.4,48.9-.7,7.2-1.3,13.7-1.8,19.6s-1.1,10.9-1.6,15.1-.8,7.4-1.1,9.7S82.6,194.9,82.6,194.9Z"/>
    <g>
      <path class="b5ddea2d-a03b-4bfe-b221-123b7a382a1b" d="M138.2,76.4s11.2-24,22.6-25.2c19.8-2,39.2,18.7,39.2,18.7C194.6,68.1,161.2,59.1,138.2,76.4Z"/>
      <path class="b9506d37-a544-4691-8a40-aaddbd30177a" d="M131.2,84.9l4.6-9.6c1.2-2.6,12.2-25.4,24.8-26.7a33.5,33.5,0,0,1,5.5-.1C184.8,50,201.3,67.3,202,68.1l7,7.4-9.8-3.1A88.1,88.1,0,0,0,180,68.9c-11.4-.9-27.5.1-40.2,9.6Zm34.5-31.1a23.4,23.4,0,0,0-4.6.1c-5.4.5-11.5,8.3-15.8,15.2,12-5.7,25.3-6.3,35.1-5.5q5.5.4,9.9,1.2C184.2,60.1,175.1,54.5,165.7,53.8Z"/>
    </g>
    <g>
      <path class="b5ddea2d-a03b-4bfe-b221-123b7a382a1b" d="M356.5,86.9s-8.9-27-22.7-28.8c-28.4-3.6-45.6,17.4-45.6,17.4S328.6,60.7,356.5,86.9Z"/>
      <path class="b9506d37-a544-4691-8a40-aaddbd30177a" d="M362.2,96l-7.6-7.1c-9.2-8.7-20.8-13.6-34.6-14.7A85.2,85.2,0,0,0,289.1,78L280,81.3l6.1-7.4c.7-.9,18.5-22.2,48-18.4C349.4,57.4,358.6,85,359,86.1ZM320.4,68.9c11.2.9,21.2,4.1,29.8,9.7-3.9-7.9-9.9-17-16.7-17.9a49.4,49.4,0,0,0-35.6,9.6A90.2,90.2,0,0,1,320.4,68.9Z"/>
    </g>
    <g>
      <g>
        <path class="b9506d37-a544-4691-8a40-aaddbd30177a" d="M346.8,226.6c-1.9,6.2-4.1,12.1-6.3,17.8-3.5,8.7-7.2,16.9-11.1,24.4C320,287.1,308.7,319,300,328.5c-5.5,5.9-10.4,9.8-14.2,11.6-10.4,4.7-54.7-1.6-77-7.2-11.3-2.8-16.7-57.8-21.2-85.9l1.9.4C202.2,249.6,278.9,261.3,346.8,226.6Z"/>
        <path class="b9506d37-a544-4691-8a40-aaddbd30177a" d="M260.7,343.9a354.2,354.2,0,0,1-52.6-8.4C198,333,193.2,304.7,187.6,265c-.9-6.4-1.8-12.5-2.6-17.6l-.6-3.8,3.8.8,1.7.4c3.8.6,11.9,1.9,23.2,2.8h0c28.2,2.1,83,1.9,132.5-23.3l5.7-2.9-1.9,6c-1.9,5.9-4.1,11.9-6.5,17.9A231.7,231.7,0,0,1,331.7,270c-3.3,6.5-7,15-10.6,23.3-6.8,15.7-13.3,30.6-19.1,37s-10.9,10.3-15.1,12.2S273.9,344.9,260.7,343.9Zm-69.9-93.6c.7,4.3,1.3,9,2,14,3.2,22.4,9.1,64.2,16.6,66.1a355.3,355.3,0,0,0,51.7,8.2c16.1,1.2,21.7-.1,23.6-.9,3.5-1.6,8.3-5.6,13.4-11s11.8-20.9,18.2-35.5c3.6-8.4,7.3-17,10.7-23.6a254.3,254.3,0,0,0,11-24.2c1.5-3.9,3-7.8,4.3-11.6-49.1,23-101.9,23.1-129.6,21h0C202.7,252.1,195.2,251,190.8,250.3Z"/>
      </g>
      <g>
        <path class="adeeb85a-d5fe-4e84-a953-512851686440" d="M329.4,268.8c-9.4,18.3-21.8,53.6-30.5,63-5.5,5.9-7.8,6.8-13.1,8.3-11,3-44.8-1.8-71.1-6.3-7.3-4.9-2.5-15.8-2.5-15.8s6.1-28.9,27.5-30.6c8.6-.7,20.8,1.5,20.8,1.5S295.6,259.2,329.4,268.8Z"/>
        <path class="b60954c0-b33b-48d1-862f-db39e10b7ed4" d="M311.2,275c-7.5,14.7-17.3,42.8-24.3,50.3-4.4,4.8-6.2,5.5-10.4,6.6-8.8,2.5-35.8-1.4-56.8-4.9-5.8-4-2-12.7-2-12.7s4.9-23.1,22-24.4c6.8-.6,16.6,1.2,16.6,1.2S284.3,267.4,311.2,275Z"/>
        <path class="b9506d37-a544-4691-8a40-aaddbd30177a" d="M264.1,343.2c-12.4-1-29.2-3.2-49.9-6.8h-.6l-.4-.3c-8.4-5.7-4.3-16.9-3.5-18.8s7.6-30.7,29.8-32.5a78.5,78.5,0,0,1,9.6.1c4.6.4,8.7,1,10.7,1.3,5.4-4.3,31.6-23.9,59.9-21.7a57.9,57.9,0,0,1,10.4,1.8l3.1.9-1.5,2.9c-3.4,6.6-7.1,15.4-11.1,24.8-6.9,16-14,32.5-19.8,38.8s-8.4,7.4-14.3,9C282.2,343.8,274.9,344,264.1,343.2Zm-48.4-11.9c20.3,3.5,36.7,5.7,48.8,6.6s18.1.3,20.6-.4c5-1.3,6.8-2,11.8-7.5s12.1-21.7,18.8-37.3c3.5-8.1,6.8-15.8,9.8-22.2a42,42,0,0,0-6.2-.8c-28.9-2.2-56.8,21-57.1,21.3l-.9.8-1.2-.2a100.7,100.7,0,0,0-11.4-1.5,66,66,0,0,0-8.8-.1c-19.1,1.5-25,28.3-25.1,28.6l-.2.5C214.6,319.2,211,327.5,215.7,331.3Z"/>
      </g>
      <g>
        <path class="adc26054-832e-4364-a8e8-7de77e65452b" d="M346.1,226.6c-2,6.1-4.2,12-6.4,17.7-62.4,33.7-135.8,23.5-141,18.9s-9.8-15.3-10-15.9C201.4,249.6,278.1,261.2,346.1,226.6Z"/>
        <path class="b9506d37-a544-4691-8a40-aaddbd30177a" d="M221.8,270.3c-9.6-.7-21.8-2.5-24.8-5.1-4.9-4.2-9.1-13.1-10.7-16.7l-2-4.5,4.9.7a215.5,215.5,0,0,0,23.1,2.8h0c28.3,2.1,83,2,132.6-23.3l5.6-2.9-1.9,6.1c-1.9,5.9-4.1,11.9-6.5,17.9l-.3.9-.9.4C293,272.5,241.7,271.8,221.8,270.3Zm-28.6-19.6c2.2,4.3,4.8,8.4,7.2,10.5s8,2.8,21.8,3.9,67.5,2.8,115.4-22.7c1.4-3.5,2.7-7.1,3.9-10.7-49.1,23.1-101.9,23.2-129.6,21.1h0C204.1,252.2,197.7,251.4,193.2,250.7Z"/>
      </g>
    </g>
    <path class="b9506d37-a544-4691-8a40-aaddbd30177a" d="M223.7,152.3a55.1,55.1,0,0,1-1,7.9,51.2,51.2,0,0,1-2,7.7,24.3,24.3,0,0,1-1.3,3.8l-.7,1.9-.8,1.9a23.7,23.7,0,0,1-1.7,3.6c-.6,1.2-1.2,2.4-1.9,3.6l-2.2,3.5a25.2,25.2,0,0,1-2.4,3.3l-1.2,1.7-1.4,1.5c-1,1-1.9,2.1-2.9,3l-3.2,2.8a29.3,29.3,0,0,1-3.4,2.4,21.6,21.6,0,0,1-3.6,2.2l-3.8,1.9,1.7-4.9,1.9,3.5,2,3.4,2,3.4,2.1,3.4,2.2,3.3,1,1.6,1.2,1.6,1.2,1.6c.4.5.7,1.1,1.1,1.5l2.6,2.8-1.5-.3,6.9-1,7.1-.7-6.6,2.7-6.5,2.4-.8.3-.8-.6-3.4-2.6-1.5-1.5-1.5-1.4-1.5-1.6-1.3-1.5c-.9-1.1-1.9-2.1-2.7-3.2l-2.5-3.3-2.4-3.4c-1.5-2.3-3-4.6-4.4-7l-1.7-3,3.4-1.9,3.2-1.6a18.9,18.9,0,0,0,3-1.9,32.1,32.1,0,0,0,3-2.1l2.8-2.4,2.6-2.5,1.3-1.3,1.2-1.4c.8-1,1.7-1.9,2.4-2.9l2.3-3,2.1-3.1c.7-1.1,1.4-2.2,2-3.3a26.3,26.3,0,0,0,2-3.3l1.8-3.3L219,163c.5-1.2,1.1-2.3,1.6-3.5S222.7,154.7,223.7,152.3Z"/>
    <g>
      <path class="adc26054-832e-4364-a8e8-7de77e65452b" d="M203.4,160.4c-1.8,24.6-19,43.4-38.2,42s-33.4-22.7-31.5-47.3,19-43.5,38.2-42S205.3,135.7,203.4,160.4Z"/>
      <path class="b9506d37-a544-4691-8a40-aaddbd30177a" d="M152.7,197.1l-1.6-.8-1.8-.9-2.3-1.5a35.6,35.6,0,0,1-5.7-5.1,44.6,44.6,0,0,1-9.9-19.3,50.8,50.8,0,0,1-1.7-13.2v-3.6l.3-3.3a62.6,62.6,0,0,1,1.4-7.3,65.1,65.1,0,0,1,2.3-7.1l1.6-3.4c.5-1.1,1.2-2.2,1.8-3.3a43.8,43.8,0,0,1,9.8-11.6,34.6,34.6,0,0,1,13.2-7.1l3.6-.8,3.5-.3c1.2-.1,2.4.1,3.5.1h1.8l1.5.2a30.5,30.5,0,0,1,11.4,4.9,33,33,0,0,1,7.3,7.1,33.7,33.7,0,0,1,3.9,6.5l1.1,2.5a10.8,10.8,0,0,1,.6,2,8.7,8.7,0,0,1,.5,1.6l-.9-1.4-2.8-3.8a38.6,38.6,0,0,0-12.3-10.1,31.4,31.4,0,0,0-4.6-1.8l-2.5-.5-2.5-.4h-2.7a24.5,24.5,0,0,0-2.7.2l-2.7.5-2.7.8a31.3,31.3,0,0,0-9.9,6.1,40.5,40.5,0,0,0-7.8,9.6,44.3,44.3,0,0,0-5,11.6l-.5,1.5-.3,1.4c-.2,1.1-.5,2-.7,3s-.3,2.2-.5,3.3v.6h0c.1-.3,0-.1,0-.1v.8l-.2,1.5a64.5,64.5,0,0,0,.4,11.7,51.8,51.8,0,0,0,2.4,10.3,57.3,57.3,0,0,0,3.7,8.2,43.9,43.9,0,0,0,4.2,5.8,34.8,34.8,0,0,0,3.2,3.3Z"/>
    </g>
    <g>
      <path class="b9506d37-a544-4691-8a40-aaddbd30177a" d="M197.6,159.8c-1.2,15.8-11.3,27.9-22.5,27.1s-19.3-14.4-18.1-30.1,11.2-27.9,22.4-27.1S198.8,144.1,197.6,159.8Z"/>
      <path class="adc26054-832e-4364-a8e8-7de77e65452b" d="M190.7,146.8a6.3,6.3,0,1,1-12.5-1,6.2,6.2,0,0,1,6.7-5.7A6.1,6.1,0,0,1,190.7,146.8Z"/>
    </g>
    <g>
      <path class="adc26054-832e-4364-a8e8-7de77e65452b" d="M347.8,167.3c-1.9,24.7-19,43.5-38.3,42S276.2,186.7,278,162s19.1-43.4,38.3-42S349.7,142.7,347.8,167.3Z"/>
      <path class="b9506d37-a544-4691-8a40-aaddbd30177a" d="M278.1,163.5v-4.2c0-.9.2-2,.3-3.2a20.6,20.6,0,0,1,.6-3.9,29.3,29.3,0,0,1,1.1-4.5,43.8,43.8,0,0,1,1.8-5l1.3-2.6a9.1,9.1,0,0,1,.7-1.4l.8-1.3a44.5,44.5,0,0,1,3.8-5.4l2.4-2.6,2.7-2.4a35.1,35.1,0,0,1,14.2-7l4.2-.7h4.3l2.2.2,2,.3A23,23,0,0,1,325,121a35.9,35.9,0,0,1,14.7,9.8,44.5,44.5,0,0,1,8.8,14.9,49.3,49.3,0,0,1,3,16.3c0,1.3,0,2.6-.1,3.9a24.5,24.5,0,0,1-.4,3.9,62.6,62.6,0,0,1-1.4,7.3,46.9,46.9,0,0,1-5.4,12.4,41.2,41.2,0,0,1-7,8.9,34.5,34.5,0,0,1-6.9,5.2,18.8,18.8,0,0,1-2.9,1.4l-2.1.9-1.8.6,1.6-1a49,49,0,0,0,4.1-3.3,41.1,41.1,0,0,0,5.4-6,48.1,48.1,0,0,0,5.1-9,50.6,50.6,0,0,0,3.4-11.6,41.8,41.8,0,0,0,.7-6.5,50.5,50.5,0,0,0-.2-6.7,46.9,46.9,0,0,0-3.1-13.7,39.4,39.4,0,0,0-7.3-11.9,28.5,28.5,0,0,0-11.1-7.8l-2.9-.9a9.5,9.5,0,0,0-1.9-.3l-.9-.2h-.9c.5.1.1.1.2.1h-3.3l-3.2.3a29,29,0,0,0-11.7,4.6,39.5,39.5,0,0,0-8.7,8l-.9,1.1-.8,1.1-1.5,2.2a46.3,46.3,0,0,0-2.4,4.3c-.7,1.4-1.3,2.7-1.8,4a30.4,30.4,0,0,0-1.3,3.5,29.9,29.9,0,0,0-.9,2.9c-.3.9-.4,1.6-.6,2.2S278.1,163.5,278.1,163.5Z"/>
    </g>
    <g>
      <path class="b9506d37-a544-4691-8a40-aaddbd30177a" d="M333.2,166.2c-1.2,15.8-11.2,27.9-22.4,27s-19.4-14.3-18.2-30.1,11.3-27.8,22.5-27S334.4,150.4,333.2,166.2Z"/>
      <path class="adc26054-832e-4364-a8e8-7de77e65452b" d="M326.4,153.2a6.2,6.2,0,0,1-6.7,5.7,6.1,6.1,0,0,1-5.8-6.7,6.3,6.3,0,0,1,6.7-5.8A6.4,6.4,0,0,1,326.4,153.2Z"/>
    </g>
    <g>
      <g id="telefono">
        <path class="ec02b1a4-3f26-4828-b9d7-312293805d9e" d="M574.3,121.3c-11.5-26.7-41.5-33.2-62.8-35.5,0,0-28.4,115.5-24.5,116.1,1.3.1,16.6,5.2,17.8,5.3-5.3,13-18.8,34.4-31.7,51.8-13.9,18.9-32.9,37.4-46.1,46.6a117,117,0,0,0-17.7-15.4c-8,12.7-11.2,18.8-18.4,29.3-3.3.8-5.2,1.1-5.2,1.1l1.6,4c-32.4,46-57.9,69.6-57.9,69.6,16.8,11.5,54.8,20.5,84.8,1.5C543.5,313.8,598.9,178.3,574.3,121.3Z"/>
        <path class="a6ec21c5-c803-4198-b051-8998f42439e7" d="M516.5,86.9c-23.3-7.5-43.8,16.3-53,46.3-13,42.8-.8,59.6,17.1,66.7s40.7,2.2,61.4-51.4C554.7,115.5,539.8,94.5,516.5,86.9Z"/>
        <path class="a6ec21c5-c803-4198-b051-8998f42439e7" d="M419.5,301.6c-8.5-19-34.9-31.1-74.9,1.8-25.7,21.1-40.9,48.5-29.5,73.4s33.7,29.4,64.2,5.5C417.5,352.4,428,320.7,419.5,301.6Z"/>
        <path class="b8bd48d6-648c-416c-ba01-ad4a95e4b027" d="M488.7,114.6c-3.9-1.2-7.4,2.9-8.9,7.9-2.1,7.3,9.9,11.6,13.3,2.5C495.2,119.4,492.7,115.9,488.7,114.6Z"/>
        <path class="b8bd48d6-648c-416c-ba01-ad4a95e4b027" d="M520,124.5c-3.9-1.3-7.4,2.8-8.9,7.9-2.1,7.3,9.9,11.6,13.3,2.5C526.5,129.2,524,125.7,520,124.5Z"/>
        <path class="b8bd48d6-648c-416c-ba01-ad4a95e4b027" d="M490.8,153.5c-3.9-1.2-7.2,2.7-8.7,7.7-2.1,7,9.6,11.2,12.9,2.4C497.1,158.1,494.6,154.7,490.8,153.5Z"/>
        <path class="b8bd48d6-648c-416c-ba01-ad4a95e4b027" d="M396.1,329.1c-4.2-1.3-8.9,2.1-11.7,6.6-4,6.4,8.7,11.1,14.5,3.1C402.5,333.8,400.3,330.5,396.1,329.1Z"/>
        <path class="b8bd48d6-648c-416c-ba01-ad4a95e4b027" d="M348.4,350.3c-4.2-1.4-8.9,2.1-11.7,6.6-4,6.4,8.7,11,14.5,3C354.8,355,352.6,351.7,348.4,350.3Z"/>
        <path class="b8bd48d6-648c-416c-ba01-ad4a95e4b027" d="M369.1,303c-4.2-1.3-8.9,2.1-11.7,6.6-4,6.4,8.7,11,14.5,3C375.5,307.7,373.3,304.4,369.1,303Z"/>
      </g>
      
    </g>
  </g>
</svg>
