<svg id="a9c6dd6d-efe2-4b1c-82d4-a181d0bee39d" data-name="Capa 1" xmlns="http://www.w3.org/2000/svg" width="70" height="70" viewBox="0 0 100 99.1">
  <defs>
    <style>
      .a468360c-ec85-4dc0-98b7-51a3ad27ca50 {
        fill: #ecedef;
      }

      .a68f341d-38e2-4ea3-8a82-953854ef94e6 {
        fill: #eac135;
      }

      .e20aeeaa-22ac-46dd-b27f-04929b15b76a {
        fill: #fff;
      }

      .b5c19d72-d1d5-414a-b3f3-15d8cff59d0f {
        fill: #040006;
      }
    </style>
  </defs>
  <title>ficha3</title>
  <g>
    <g>
      <ellipse class="a468360c-ec85-4dc0-98b7-51a3ad27ca50" cx="50" cy="49.5" rx="50" ry="49.5"/>
      <circle class="a68f341d-38e2-4ea3-8a82-953854ef94e6" cx="48.9" cy="49.1" r="48" transform="translate(-20.4 48.5) rotate(-45)"/>
      <path class="e20aeeaa-22ac-46dd-b27f-04929b15b76a" d="M49,84.3h-.1a34.2,34.2,0,0,1-9-1.2,1,1,0,0,1-.8-1.3,1.1,1.1,0,0,1,1.3-.8,35.4,35.4,0,0,0,8.5,1.1,1.2,1.2,0,0,1,1.2,1.1A1.1,1.1,0,0,1,49,84.3Zm8.8-1.1a1.2,1.2,0,0,1-1.1-.9,1.1,1.1,0,0,1,.8-1.3,36.6,36.6,0,0,0,7.9-3.3,1.1,1.1,0,0,1,1.5.4,1,1,0,0,1-.4,1.5,36.4,36.4,0,0,1-8.4,3.5ZM31.9,79.8l-.5-.2a35.8,35.8,0,0,1-7.3-5.5,1.1,1.1,0,1,1,1.6-1.6,31.4,31.4,0,0,0,6.8,5.2,1.1,1.1,0,0,1,.4,1.5A1.1,1.1,0,0,1,31.9,79.8ZM73,74.3a1.1,1.1,0,0,1-.7-.3,1,1,0,0,1,0-1.6,31.4,31.4,0,0,0,5.2-6.8,1.1,1.1,0,0,1,1.9,1.1A33,33,0,0,1,73.8,74,1.1,1.1,0,0,1,73,74.3Zm-53.5-7a1.2,1.2,0,0,1-1-.5A37.1,37.1,0,0,1,15,58.3a1,1,0,0,1,.7-1.3,1.2,1.2,0,0,1,1.4.7,32.9,32.9,0,0,0,3.3,8,1.1,1.1,0,0,1-.4,1.5Zm62.4-8.2h-.3a1,1,0,0,1-.8-1.3,35.6,35.6,0,0,0,1.1-8.6h0A1.1,1.1,0,0,1,83,47.9h0A1.1,1.1,0,0,1,84.1,49h0a34.4,34.4,0,0,1-1.2,9.1A1.2,1.2,0,0,1,81.9,59.1Zm-67-8.8a1.1,1.1,0,0,1-1.1-1.1h0a38.9,38.9,0,0,1,1.1-9,1.2,1.2,0,0,1,1.4-.8,1.2,1.2,0,0,1,.8,1.4A29.8,29.8,0,0,0,16,49.1,1.1,1.1,0,0,1,14.9,50.3Zm66.9-9a1,1,0,0,1-1-.8,30.9,30.9,0,0,0-3.4-7.9,1.3,1.3,0,0,1,.4-1.6,1.1,1.1,0,0,1,1.5.4,33.4,33.4,0,0,1,3.6,8.5,1.2,1.2,0,0,1-.8,1.4Zm-62.4-8-.6-.2a1.1,1.1,0,0,1-.4-1.5A39.4,39.4,0,0,1,24,24.3a1.1,1.1,0,0,1,1.6,1.6,31.9,31.9,0,0,0-5.3,6.8A1,1,0,0,1,19.4,33.3Zm53.5-7.2a.9.9,0,0,1-.7-.4,39,39,0,0,0-6.9-5.2,1.1,1.1,0,0,1-.4-1.5,1.1,1.1,0,0,1,1.5-.4,33,33,0,0,1,7.3,5.6,1,1,0,0,1,0,1.5A.9.9,0,0,1,72.9,26.1ZM31.8,20.8a1,1,0,0,1-.9-.6,1,1,0,0,1,.4-1.5,36.4,36.4,0,0,1,8.4-3.5,1.1,1.1,0,0,1,1.4.8,1.1,1.1,0,0,1-.8,1.3,36.6,36.6,0,0,0-7.9,3.3Zm25.8-3.5h-.2a30.5,30.5,0,0,0-8.5-1.1h-.1a1.1,1.1,0,0,1,0-2.2h.1a38.2,38.2,0,0,1,9,1.1,1.1,1.1,0,0,1,.8,1.4A1.1,1.1,0,0,1,57.6,17.3Z" transform="translate(0 -0.5)"/>
      <path class="e20aeeaa-22ac-46dd-b27f-04929b15b76a" d="M44.3,9.3h12a1.8,1.8,0,0,0,1.8-1.7l.3-5.5a49.4,49.4,0,0,0-9.5-.9,51.9,51.9,0,0,0-6.8.5l.4,5.9A1.8,1.8,0,0,0,44.3,9.3Z" transform="translate(0 -0.5)"/>
      <path class="e20aeeaa-22ac-46dd-b27f-04929b15b76a" d="M12.1,33.2l6-10.4a1.7,1.7,0,0,0-.6-2.3L13,17.4A49.8,49.8,0,0,0,4.4,31.3l5.4,2.6A1.6,1.6,0,0,0,12.1,33.2Z" transform="translate(0 -0.5)"/>
      <path class="e20aeeaa-22ac-46dd-b27f-04929b15b76a" d="M16.7,73.1l-6-10.4A1.8,1.8,0,0,0,8.4,62L3.5,64.4a49.9,49.9,0,0,0,7.7,14.4l5-3.3A1.8,1.8,0,0,0,16.7,73.1Z" transform="translate(0 -0.5)"/>
      <path class="e20aeeaa-22ac-46dd-b27f-04929b15b76a" d="M53.6,89h-12a1.8,1.8,0,0,0-1.8,1.7l-.3,5.5a48.3,48.3,0,0,0,9.4.9,50.6,50.6,0,0,0,6.8-.5l-.3-5.9A1.8,1.8,0,0,0,53.6,89Z" transform="translate(0 -0.5)"/>
      <path class="e20aeeaa-22ac-46dd-b27f-04929b15b76a" d="M85.8,65l-6,10.4a1.7,1.7,0,0,0,.5,2.4l4.6,3A45.5,45.5,0,0,0,93.4,67l-5.3-2.7A1.8,1.8,0,0,0,85.8,65Z" transform="translate(0 -0.5)"/>
      <path class="e20aeeaa-22ac-46dd-b27f-04929b15b76a" d="M81.7,22.8a1.9,1.9,0,0,0-.6,2.4l6,10.4a1.9,1.9,0,0,0,2.4.7l4.9-2.5a48.5,48.5,0,0,0-7.8-14.3Z" transform="translate(0 -0.5)"/>
    </g>
    <g>
      <path class="e20aeeaa-22ac-46dd-b27f-04929b15b76a" d="M38.9,38.9c5.2,0,8.8,4.2,8.8,9.3s-3.6,8.5-8.8,9.4-9.6-1.1-9.6-6.3S33.7,38.9,38.9,38.9Z" transform="translate(0 -0.5)"/>
      <path class="e20aeeaa-22ac-46dd-b27f-04929b15b76a" d="M69.1,46.8c0,4.8-3.2,7.9-7.7,7.9s-9.1-3.1-9.1-7.9A8.9,8.9,0,0,1,61,38.1C65.5,38.1,69.1,42,69.1,46.8Z" transform="translate(0 -0.5)"/>
      <path class="b5c19d72-d1d5-414a-b3f3-15d8cff59d0f" d="M67.6,72.4C56.4,78.6,41,74,35.9,70.6s-8.2-5.2-10.3-5.7l1.5.4A120,120,0,0,0,52,72.9c6.5,1.1,11.5.8,15.5-.6Z" transform="translate(0 -0.5)"/>
      <path class="b5c19d72-d1d5-414a-b3f3-15d8cff59d0f" d="M44.4,49a4.9,4.9,0,0,1-9.7,0,4.9,4.9,0,1,1,9.7,0Z" transform="translate(0 -0.5)"/>
      <path class="e20aeeaa-22ac-46dd-b27f-04929b15b76a" d="M43,47.4a1.9,1.9,0,1,1-1.9-1.9A2,2,0,0,1,43,47.4Z" transform="translate(0 -0.5)"/>
      <path class="b5c19d72-d1d5-414a-b3f3-15d8cff59d0f" d="M64.1,46.5a4.3,4.3,0,0,1-8.5,0,4.3,4.3,0,1,1,8.5,0Z" transform="translate(0 -0.5)"/>
      <path class="e20aeeaa-22ac-46dd-b27f-04929b15b76a" d="M62.8,45.1a1.6,1.6,0,1,1-1.6-1.6A1.6,1.6,0,0,1,62.8,45.1Z" transform="translate(0 -0.5)"/>
      <path class="b5c19d72-d1d5-414a-b3f3-15d8cff59d0f" d="M32,33.8c-.1-.7,1.6-2.9,5-3.9s6-1.7,6.8.6-.5,2.8-4.8,2.9C32.3,33.5,32,34.4,32,33.8Z" transform="translate(0 -0.5)"/>
      <path class="b5c19d72-d1d5-414a-b3f3-15d8cff59d0f" d="M67.8,28.8c.4-.4-2.1-2.5-7.2-3.1s-5.4-2.7-7.3-1.2-.1,4.1,3,4.1,6.2-.3,8.2-.1S67.2,29.3,67.8,28.8Z" transform="translate(0 -0.5)"/>
      <path class="b5c19d72-d1d5-414a-b3f3-15d8cff59d0f" d="M47.1,48.2c0,4.6-3.1,7.9-8.3,8.7-2.9.5-5.5,0-7.1-1.3a5.2,5.2,0,0,1-1.8-4.3,14,14,0,0,1,2.8-7.7c1.8-2.6,4.1-4.1,6.2-4.1a7.7,7.7,0,0,1,5.9,2.6A8.9,8.9,0,0,1,47.1,48.2Zm-8.2-9.9c-2.6,0-5.2,1.6-7.3,4.5a16.1,16.1,0,0,0-2.9,8.5,6.3,6.3,0,0,0,2.2,5.2c1.8,1.6,4.8,2.2,8.1,1.7,5.8-1,9.4-4.8,9.4-10a10.4,10.4,0,0,0-2.7-7A8.9,8.9,0,0,0,38.9,38.3Z" transform="translate(0 -0.5)"/>
      <path class="b5c19d72-d1d5-414a-b3f3-15d8cff59d0f" d="M68.5,46.8A6.8,6.8,0,0,1,61.4,54c-4.1,0-8.5-2.7-8.5-7.2A8.3,8.3,0,0,1,61,38.7C65.1,38.7,68.5,42.3,68.5,46.8ZM61,37.5a9.5,9.5,0,0,0-9.3,9.3c0,5.2,5,8.5,9.7,8.5s8.3-3.5,8.3-8.5S65.8,37.5,61,37.5Z" transform="translate(0 -0.5)"/>
      <path class="b5c19d72-d1d5-414a-b3f3-15d8cff59d0f" d="M25.5,65.5l1.3.4a122.4,122.4,0,0,0,25.1,7.6c6.3,1.1,11.5.9,15.8-.6a20.4,20.4,0,0,0,7.6-4.5c5.3-4.8,2.5-9.6,2.5-9.7h0a.5.5,0,0,0-.8-.2.8.8,0,0,0-.3.9h0c.1.1,2.3,4-2.3,8.1a17.2,17.2,0,0,1-7.1,4.2c-4.1,1.4-9.1,1.6-15.2.6a123,123,0,0,1-24.8-7.5,3.7,3.7,0,0,0-1.7-.5h0c-.3-.1-.6.2-.7.5s.2.7.6.7Z" transform="translate(0 -0.5)"/>
      <path class="b5c19d72-d1d5-414a-b3f3-15d8cff59d0f" d="M22.5,66.4h0a3.9,3.9,0,0,1,2.9-.9h0a.6.6,0,1,0,.2-1.2h0a5.1,5.1,0,0,0-4,1.3h0a.6.6,0,0,0,.1.9.5.5,0,0,0,.8-.1Z" transform="translate(0 -0.5)"/>
      <path class="b5c19d72-d1d5-414a-b3f3-15d8cff59d0f" d="M24.7,65.4h.7l-.3-.2.5.2h-.2c2.1.5,6.2,3,10.2,5.6,5.5,3.6,21.1,8,32.3,1.9h0a.7.7,0,0,0,.2-.9.5.5,0,0,0-.8-.2h0c-10.7,5.9-25.7,1.7-31-1.8s-8.4-5.3-10.6-5.8h-.1a.4.4,0,0,1,.4.2l-.3-.2h-1a.6.6,0,0,0-.6.6.6.6,0,0,0,.6.6Z" transform="translate(0 -0.5)"/>
    </g>
  </g>
</svg>
