<svg id="ficha2" data-name="Capa 1" xmlns="http://www.w3.org/2000/svg" width="70" height="70" viewBox="0 0 100.9 100">
  <defs>
    <style>
      .bffee8f6-8846-4403-bc48-5ba6558c655d {
        fill: #ecedef;
      }

      .b9802178-ff58-4228-b55b-cdade4924f7d {
        fill: #3354f2;
      }

      .b935328f-99f5-4d58-a8f8-2a120f7b421a {
        fill: #fff;
      }

      .b9c1cdf9-8b9d-448d-b38e-bce15c95c43b {
        fill: #040006;
      }

      .a7d4fc15-896c-4bc7-9c8e-3182058c44e6 {
        fill: #b21f15;
      }
    </style>
  </defs>
  <title>ficha2</title>
  <g>
    <g>
      <ellipse class="bffee8f6-8846-4403-bc48-5ba6558c655d" cx="50.5" cy="50" rx="50.5" ry="50"/>
      <circle class="b9802178-ff58-4228-b55b-cdade4924f7d" cx="48.9" cy="49.1" r="48.4" transform="translate(-20 49) rotate(-45)"/>
      <path class="b935328f-99f5-4d58-a8f8-2a120f7b421a" d="M49,84.6h-.1a34.4,34.4,0,0,1-9.1-1.2,1,1,0,0,1-.8-1.3,1,1,0,0,1,1.3-.8,35.6,35.6,0,0,0,8.6,1.1,1.2,1.2,0,0,1,1.2,1.1A1.1,1.1,0,0,1,49,84.6Zm8.9-1.1a1.2,1.2,0,0,1-1.1-.9,1,1,0,0,1,.8-1.3,33.2,33.2,0,0,0,8-3.4,1.1,1.1,0,0,1,1.5.4,1.2,1.2,0,0,1-.4,1.6,37.9,37.9,0,0,1-8.6,3.5ZM31.8,80.1l-.6-.2a33,33,0,0,1-7.3-5.6,1,1,0,0,1,0-1.6,1.1,1.1,0,0,1,1.5,0A35.2,35.2,0,0,0,32.3,78a1,1,0,0,1,.4,1.5A1,1,0,0,1,31.8,80.1Zm41.4-5.5a1.3,1.3,0,0,1-.7-.4.9.9,0,0,1,0-1.5,34.7,34.7,0,0,0,5.2-6.9,1.2,1.2,0,0,1,1.6-.4,1.1,1.1,0,0,1,.4,1.5A36.8,36.8,0,0,1,74,74.2,1.2,1.2,0,0,1,73.2,74.6Zm-54-7.1a1.1,1.1,0,0,1-1-.6,32,32,0,0,1-3.6-8.5,1.2,1.2,0,0,1,.8-1.4,1.2,1.2,0,0,1,1.4.8,32.9,32.9,0,0,0,3.3,8,1,1,0,0,1-.4,1.5Zm62.9-8.4h-.2a1.1,1.1,0,0,1-.8-1.4,34.3,34.3,0,0,0,1.1-8.6h0a1.1,1.1,0,0,1,1.1-1.1h0A1.1,1.1,0,0,1,84.4,49h0a35.7,35.7,0,0,1-1.2,9.2A1.1,1.1,0,0,1,82.1,59.1ZM14.5,50.3a1.1,1.1,0,0,1-1.1-1.1h0A35,35,0,0,1,14.6,40a1.2,1.2,0,0,1,1.4-.8,1.2,1.2,0,0,1,.8,1.4,30.5,30.5,0,0,0-1.1,8.5A1.2,1.2,0,0,1,14.5,50.3Zm67.6-9.1a1.2,1.2,0,0,1-1.1-.8,32.9,32.9,0,0,0-3.3-8,1.1,1.1,0,0,1,.4-1.5,1,1,0,0,1,1.5.4,33.4,33.4,0,0,1,3.6,8.5,1.2,1.2,0,0,1-.8,1.4Zm-63-8.1h-.6a1.1,1.1,0,0,1-.4-1.5,37.4,37.4,0,0,1,5.7-7.4,1.1,1.1,0,0,1,1.5,0,1,1,0,0,1,0,1.6,32,32,0,0,0-5.2,6.9A1.2,1.2,0,0,1,19.1,33.1Zm54.1-7.3a1.1,1.1,0,0,1-.8-.3,34.7,34.7,0,0,0-6.9-5.2,1.1,1.1,0,0,1-.4-1.6,1.1,1.1,0,0,1,1.5-.4,40.4,40.4,0,0,1,7.3,5.6,1,1,0,0,1,0,1.6A1.1,1.1,0,0,1,73.2,25.8ZM31.6,20.5a1.2,1.2,0,0,1-.9-.5,1.2,1.2,0,0,1,.4-1.6,37.1,37.1,0,0,1,8.5-3.5,1.2,1.2,0,0,1,1.4.7,1.1,1.1,0,0,1-.8,1.4,33.2,33.2,0,0,0-8,3.4ZM57.7,17h-.3a30,30,0,0,0-8.5-1.1h-.1a1.1,1.1,0,0,1-1.1-1.2,1.1,1.1,0,0,1,1.1-1.1h.1A34.4,34.4,0,0,1,58,14.8a1.2,1.2,0,0,1,.8,1.4A1.1,1.1,0,0,1,57.7,17Z" transform="translate(0.5)"/>
      <path class="b935328f-99f5-4d58-a8f8-2a120f7b421a" d="M44.2,8.9H56.3a1.7,1.7,0,0,0,1.8-1.7l.4-5.5a50.4,50.4,0,0,0-9.6-1,50.6,50.6,0,0,0-6.8.5l.3,6A1.8,1.8,0,0,0,44.2,8.9Z" transform="translate(0.5)"/>
      <path class="b935328f-99f5-4d58-a8f8-2a120f7b421a" d="M11.7,33.1l6.1-10.5a1.8,1.8,0,0,0-.6-2.4l-4.6-3.1A50.3,50.3,0,0,0,4,31.1l5.4,2.7A1.8,1.8,0,0,0,11.7,33.1Z" transform="translate(0.5)"/>
      <path class="b935328f-99f5-4d58-a8f8-2a120f7b421a" d="M16.4,73.3l-6-10.5A1.9,1.9,0,0,0,8,62.1L3.1,64.6A45.7,45.7,0,0,0,10.9,79l5-3.3A1.8,1.8,0,0,0,16.4,73.3Z" transform="translate(0.5)"/>
      <path class="b935328f-99f5-4d58-a8f8-2a120f7b421a" d="M53.6,89.4H41.5A1.8,1.8,0,0,0,39.7,91l-.3,5.6a50.1,50.1,0,0,0,9.5.9,39.4,39.4,0,0,0,6.9-.5l-.4-6A1.8,1.8,0,0,0,53.6,89.4Z" transform="translate(0.5)"/>
      <path class="b935328f-99f5-4d58-a8f8-2a120f7b421a" d="M86.1,65.2,80,75.7a1.9,1.9,0,0,0,.6,2.4l4.6,3a47.6,47.6,0,0,0,8.6-13.9l-5.3-2.7A1.9,1.9,0,0,0,86.1,65.2Z" transform="translate(0.5)"/>
      <path class="b935328f-99f5-4d58-a8f8-2a120f7b421a" d="M82,22.6a1.8,1.8,0,0,0-.6,2.4l6.1,10.4a1.7,1.7,0,0,0,2.3.8l5-2.5A48.9,48.9,0,0,0,87,19.3Z" transform="translate(0.5)"/>
    </g>
    <g>
      <g>
        <path class="b9c1cdf9-8b9d-448d-b38e-bce15c95c43b" d="M46.9,66.3h.7c-.4.4-3.9,4.6-1.9,7.6h0c-7.2-1.2-9.9-8.1-9.9-8.1v-.5A30.9,30.9,0,0,0,46.9,66.3Z" transform="translate(0.5)"/>
        <path class="a7d4fc15-896c-4bc7-9c8e-3182058c44e6" d="M70,56.7A25.8,25.8,0,0,1,54.3,72.8a16.2,16.2,0,0,1-8.6,1.1h0c-2-3,1.5-7.2,1.9-7.6C59.5,65.2,67.9,61.6,70,56.7Z" transform="translate(0.5)"/>
        <path class="b935328f-99f5-4d58-a8f8-2a120f7b421a" d="M56.2,32.5c4.3,0,7.8,4.4,7.8,9.8s-3.5,9.9-7.8,9.9-7.8-4.4-7.8-9.9S51.9,32.5,56.2,32.5Z" transform="translate(0.5)"/>
        <path class="b935328f-99f5-4d58-a8f8-2a120f7b421a" d="M36.7,32.6c5.1,0,9.2,4.7,9.2,10.4s-4.1,10.4-9.2,10.4S27.5,48.7,27.5,43,31.6,32.6,36.7,32.6Z" transform="translate(0.5)"/>
      </g>
      <path class="b9c1cdf9-8b9d-448d-b38e-bce15c95c43b" d="M41.6,41.5a3.4,3.4,0,1,1-3.4-3.6A3.5,3.5,0,0,1,41.6,41.5Z" transform="translate(0.5)"/>
      <path class="b935328f-99f5-4d58-a8f8-2a120f7b421a" d="M40.1,40.7a1.2,1.2,0,0,1-2.4,0,1.2,1.2,0,0,1,2.4,0Z" transform="translate(0.5)"/>
      <path class="b9c1cdf9-8b9d-448d-b38e-bce15c95c43b" d="M60.5,40.6A3.4,3.4,0,1,1,57.1,37,3.5,3.5,0,0,1,60.5,40.6Z" transform="translate(0.5)"/>
      <path class="b935328f-99f5-4d58-a8f8-2a120f7b421a" d="M59,39.8A1.2,1.2,0,0,1,57.8,41a1.2,1.2,0,1,1,0-2.4A1.2,1.2,0,0,1,59,39.8Z" transform="translate(0.5)"/>
      <path class="b9c1cdf9-8b9d-448d-b38e-bce15c95c43b" d="M42.5,26.4c1.2-.3,2.9,3.2.6,3.6l-6.7,1.3c-1.3.4-1.1-.3,1-1.5S41.4,26.7,42.5,26.4Z" transform="translate(0.5)"/>
      <path class="b9c1cdf9-8b9d-448d-b38e-bce15c95c43b" d="M58.8,28.8c-.3.8-2.3-.4-5.9-.4s-3.5-1-3.2-2.2,1.7-1.4,4-.6S59.1,28.1,58.8,28.8Z" transform="translate(0.5)"/>
      <g>
        <path class="b9c1cdf9-8b9d-448d-b38e-bce15c95c43b" d="M45.1,43c0,5.3-3.8,9.6-8.4,9.6s-8.4-4.3-8.4-9.6a10.2,10.2,0,0,1,2.5-6.8,7.6,7.6,0,0,1,11.8,0A10.2,10.2,0,0,1,45.1,43ZM36.7,31.9a9.2,9.2,0,0,0-7,3.3A11.6,11.6,0,0,0,26.8,43c0,6.1,4.4,11.1,9.9,11.1s9.9-5,9.9-11.1a11.6,11.6,0,0,0-2.9-7.8A9.2,9.2,0,0,0,36.7,31.9Z" transform="translate(0.5)"/>
        <path class="b9c1cdf9-8b9d-448d-b38e-bce15c95c43b" d="M63.3,42.3c0,5-3.2,9.1-7.1,9.1s-7.1-4.1-7.1-9.1,3.2-9.1,7.1-9.1S63.3,37.3,63.3,42.3ZM56.2,31.7c-4.7,0-8.6,4.8-8.6,10.6s3.9,10.6,8.6,10.6,8.6-4.7,8.6-10.6S60.9,31.7,56.2,31.7Z" transform="translate(0.5)"/>
        <path class="b9c1cdf9-8b9d-448d-b38e-bce15c95c43b" d="M69.3,56.5A25.3,25.3,0,0,1,54.1,72.1a15.6,15.6,0,0,1-8.3,1.1c-6.6-1.2-9.3-7.6-9.3-7.7h0a.7.7,0,0,0-1-.4.8.8,0,0,0-.4.9h0c.1.3,3,7.3,10.4,8.7a17.6,17.6,0,0,0,9.1-1.2A26.6,26.6,0,0,0,70.7,56.9h0a.7.7,0,1,0-1.4-.4Z" transform="translate(0.5)"/>
        <path class="b9c1cdf9-8b9d-448d-b38e-bce15c95c43b" d="M26.7,60.9A19.9,19.9,0,0,0,35.6,66a32.2,32.2,0,0,0,11.3,1.1h.7c12.2-1,20.8-4.8,23.1-10.1a.8.8,0,0,1-.9.5.9.9,0,0,1-.6-.7.8.8,0,0,1,1.3-.6.8.8,0,0,1,.2.8,6.9,6.9,0,0,0,.5-1.7,1,1,0,0,0-.7-.9.8.8,0,0,0-.8.6h0c-.1.2-.2.7-.4,1.4h0a.9.9,0,0,0,.5,1,.7.7,0,0,0,.9-.5h0c.2-.8.4-1.3.4-1.5h0c0-.1,0-.1.1-.2a.8.8,0,0,1-.9.6c-.4-.1-.7-.4-.6-.8a7.4,7.4,0,0,1-.4,1.4.8.8,0,0,0,.2.8.6.6,0,0,0,.8.1.6.6,0,0,0,.4-.6.8.8,0,0,0-.6-.8.7.7,0,0,0-.8.5c-2,4.6-10.3,8.1-21.8,9.1h-.7a28.5,28.5,0,0,1-10.7-1.1,18.6,18.6,0,0,1-8.3-4.6h0a.7.7,0,0,0-1-.1.8.8,0,0,0-.1,1.1Z" transform="translate(0.5)"/>
        <path class="b9c1cdf9-8b9d-448d-b38e-bce15c95c43b" d="M47.1,65.7h0c-.5.6-4.3,5.1-2,8.6h0a.8.8,0,0,0,1,.2.8.8,0,0,0,.2-1h0c-1.7-2.6,1.7-6.6,1.9-6.8h0a1.1,1.1,0,0,0,0-1.1.8.8,0,0,0-1.1,0Z" transform="translate(0.5)"/>
        <path class="b9c1cdf9-8b9d-448d-b38e-bce15c95c43b" d="M68.5,54.2h0a5.7,5.7,0,0,1,3.6,3.2h0a.7.7,0,0,0,1,.4.8.8,0,0,0,.3-1h0a6.7,6.7,0,0,0-4.6-4h0a.7.7,0,0,0-.9.5.8.8,0,0,0,.6.9Z" transform="translate(0.5)"/>
      </g>
    </g>
  </g>
</svg>
