<svg id="ficha1" data-name="Capa 1" xmlns="http://www.w3.org/2000/svg" width="70" height="70" viewBox="0 0 100 99.1">
  
  <defs>
    <style>
      .b958a924-b5ad-46b3-81b0-4fcca75eb80e {
        fill: #ecedef;
      }

      .b7cc9fad-3191-4ef9-93c4-94b043d3a733 {
        fill: #0e7a3f;
      }

      .ae920354-0570-4760-8e4f-9d8731028c31, .f4bdbb52-a9e4-40e6-b0f0-0a6aa51833f2 {
        fill: #fff;
      }

      .b6a415ba-6107-4fd0-94c3-c42842eb513e {
        fill: #040006;
      }

      .aafb95b3-e2f4-48d2-b492-5fbfb46693af, .b6a415ba-6107-4fd0-94c3-c42842eb513e, .e3db95bb-19d9-4536-b4f2-636de727a82b, .f06c735b-f505-4a71-810f-e1d433406ff4, .f4bdbb52-a9e4-40e6-b0f0-0a6aa51833f2 {
        fill-rule: evenodd;
      }

      .f06c735b-f505-4a71-810f-e1d433406ff4 {
        fill: #b52125;
      }

      .aafb95b3-e2f4-48d2-b492-5fbfb46693af {
        fill: #c0272c;
      }

      .e3db95bb-19d9-4536-b4f2-636de727a82b {
        fill: #c02c2d;
      }
    </style>
  </defs>
  <title>ficha1</title>
  <g>
    <g>
      <ellipse class="b958a924-b5ad-46b3-81b0-4fcca75eb80e" cx="50" cy="49.5" rx="50" ry="49.5"/>
      <circle class="b7cc9fad-3191-4ef9-93c4-94b043d3a733" cx="48.9" cy="49.1" r="48" transform="translate(-20.4 48.5) rotate(-45)"/>
      <path class="ae920354-0570-4760-8e4f-9d8731028c31" d="M49,84.3h-.1a34.2,34.2,0,0,1-9-1.2,1,1,0,0,1-.8-1.3,1.1,1.1,0,0,1,1.3-.8,35.4,35.4,0,0,0,8.5,1.1,1.2,1.2,0,0,1,1.2,1.1A1.1,1.1,0,0,1,49,84.3Zm8.8-1.1a1.2,1.2,0,0,1-1.1-.9,1.1,1.1,0,0,1,.8-1.3,36.6,36.6,0,0,0,7.9-3.3,1.1,1.1,0,0,1,1.5.4,1,1,0,0,1-.4,1.5,36.4,36.4,0,0,1-8.4,3.5ZM31.9,79.8l-.5-.2a35.8,35.8,0,0,1-7.3-5.5,1.1,1.1,0,1,1,1.6-1.6,31.4,31.4,0,0,0,6.8,5.2,1.1,1.1,0,0,1,.4,1.5A1.1,1.1,0,0,1,31.9,79.8ZM73,74.3a1.1,1.1,0,0,1-.7-.3,1,1,0,0,1,0-1.6,31.4,31.4,0,0,0,5.2-6.8,1.1,1.1,0,0,1,1.9,1.1A33,33,0,0,1,73.8,74,1.1,1.1,0,0,1,73,74.3Zm-53.5-7a1.2,1.2,0,0,1-1-.5A37.1,37.1,0,0,1,15,58.3a1,1,0,0,1,.7-1.3,1.2,1.2,0,0,1,1.4.7,32.9,32.9,0,0,0,3.3,8,1.1,1.1,0,0,1-.4,1.5Zm62.4-8.2h-.3a1,1,0,0,1-.8-1.3,35.6,35.6,0,0,0,1.1-8.6h0A1.1,1.1,0,0,1,83,47.9h0A1.1,1.1,0,0,1,84.1,49h0a34.4,34.4,0,0,1-1.2,9.1A1.2,1.2,0,0,1,81.9,59.1Zm-67-8.8a1.1,1.1,0,0,1-1.1-1.1h0a38.9,38.9,0,0,1,1.1-9,1.2,1.2,0,0,1,1.4-.8,1.2,1.2,0,0,1,.8,1.4A29.8,29.8,0,0,0,16,49.1,1.1,1.1,0,0,1,14.9,50.3Zm66.9-9a1,1,0,0,1-1-.8,30.9,30.9,0,0,0-3.4-7.9,1.3,1.3,0,0,1,.4-1.6,1.1,1.1,0,0,1,1.5.4,33.4,33.4,0,0,1,3.6,8.5,1.2,1.2,0,0,1-.8,1.4Zm-62.4-8-.6-.2a1.1,1.1,0,0,1-.4-1.5A39.4,39.4,0,0,1,24,24.3a1.1,1.1,0,0,1,1.6,1.6,31.9,31.9,0,0,0-5.3,6.8A1,1,0,0,1,19.4,33.3Zm53.5-7.2a.9.9,0,0,1-.7-.4,39,39,0,0,0-6.9-5.2,1.1,1.1,0,0,1-.4-1.5,1.1,1.1,0,0,1,1.5-.4,33,33,0,0,1,7.3,5.6,1,1,0,0,1,0,1.5A.9.9,0,0,1,72.9,26.1ZM31.8,20.8a1,1,0,0,1-.9-.6,1,1,0,0,1,.4-1.5,36.4,36.4,0,0,1,8.4-3.5,1.1,1.1,0,0,1,1.4.8,1.1,1.1,0,0,1-.8,1.3,36.6,36.6,0,0,0-7.9,3.3Zm25.8-3.5h-.2a30.5,30.5,0,0,0-8.5-1.1h-.1a1.1,1.1,0,0,1,0-2.2h.1a38.2,38.2,0,0,1,9,1.1,1.1,1.1,0,0,1,.8,1.4A1.1,1.1,0,0,1,57.6,17.3Z" transform="translate(0 -0.5)"/>
      <path class="ae920354-0570-4760-8e4f-9d8731028c31" d="M44.3,9.3h12a1.8,1.8,0,0,0,1.8-1.7l.3-5.5a49.4,49.4,0,0,0-9.5-.9,51.9,51.9,0,0,0-6.8.5l.4,5.9A1.8,1.8,0,0,0,44.3,9.3Z" transform="translate(0 -0.5)"/>
      <path class="ae920354-0570-4760-8e4f-9d8731028c31" d="M12.1,33.2l6-10.4a1.7,1.7,0,0,0-.6-2.3L13,17.4A49.8,49.8,0,0,0,4.4,31.3l5.4,2.6A1.6,1.6,0,0,0,12.1,33.2Z" transform="translate(0 -0.5)"/>
      <path class="ae920354-0570-4760-8e4f-9d8731028c31" d="M16.7,73.1l-6-10.4A1.8,1.8,0,0,0,8.4,62L3.5,64.4a49.9,49.9,0,0,0,7.7,14.4l5-3.3A1.8,1.8,0,0,0,16.7,73.1Z" transform="translate(0 -0.5)"/>
      <path class="ae920354-0570-4760-8e4f-9d8731028c31" d="M53.6,89h-12a1.8,1.8,0,0,0-1.8,1.7l-.3,5.5a48.3,48.3,0,0,0,9.4.9,50.6,50.6,0,0,0,6.8-.5l-.3-5.9A1.8,1.8,0,0,0,53.6,89Z" transform="translate(0 -0.5)"/>
      <path class="ae920354-0570-4760-8e4f-9d8731028c31" d="M85.8,65l-6,10.4a1.7,1.7,0,0,0,.5,2.4l4.6,3A45.5,45.5,0,0,0,93.4,67l-5.3-2.7A1.8,1.8,0,0,0,85.8,65Z" transform="translate(0 -0.5)"/>
      <path class="ae920354-0570-4760-8e4f-9d8731028c31" d="M81.7,22.8a1.9,1.9,0,0,0-.6,2.4l6,10.4a1.9,1.9,0,0,0,2.4.7l4.9-2.5a48.5,48.5,0,0,0-7.8-14.3Z" transform="translate(0 -0.5)"/>
    </g>
    <g>
      <path class="b6a415ba-6107-4fd0-94c3-c42842eb513e" d="M22.8,50.8c.5-4.1,1.6-7.7,4.2-9.9s1.4,0,1.2.7a18,18,0,0,1-.8,2.1,4.3,4.3,0,0,0,.3,3.8C37,64.6,61.3,66.7,74.3,52.9c1.5-1.5.9-3.8.8-5.7,1.8,3.1,2.5,7.4,2.2,12.6a10,10,0,0,0-1.2-4.4c-14.5,29.2-49.3,29-50.8-9.1-1,.5-1.5,2.9-2.2,4.7s-.4,1.3-.3-.2Z" transform="translate(0 -0.5)"/>
      <path class="f4bdbb52-a9e4-40e6-b0f0-0a6aa51833f2" d="M30.2,53.9c12.2,13.2,29.8,10.3,39.7,5-3.8,4.2-10,9.1-22.1,9-.6,0-1-.1-1-.7a13.6,13.6,0,0,1-.2-2c-.2.5-.2,1.6-.5,2a1.2,1.2,0,0,1-1.1.5c-9.1-1.8-12.7-7.5-14.8-13.8Z" transform="translate(0 -0.5)"/>
      <path class="f06c735b-f505-4a71-810f-e1d433406ff4" d="M46.1,70.7c-.7-1.1-2.4-2-7.7-2.2-3-.2-3.8,1.2-1.3,3.1,5.2,4.1,12.3,4.9,19.5,2.1,3.1-1.2,1.6-3-1.1-3.6s-7.3-.9-9.4.6Z" transform="translate(0 -0.5)"/>
      <path class="aafb95b3-e2f4-48d2-b492-5fbfb46693af" d="M46.2,71.4c-.5-.9-1.8-1.5-5.8-1.7-2.3-.1-2.8.9-1,2.3,4,3.1,9.2,3.7,14.7,1.6,2.3-.9,1.2-2.2-.9-2.7s-5.4-.7-7,.5Z" transform="translate(0 -0.5)"/>
      <path class="e3db95bb-19d9-4536-b4f2-636de727a82b" d="M45.6,71.9c-.3-.5-1-.9-3.4-1s-1.6.5-.6,1.4a8.7,8.7,0,0,0,8.6.9c1.3-.5.7-1.3-.5-1.6s-3.2-.4-4.1.3Z" transform="translate(0 -0.5)"/>
      <path class="b6a415ba-6107-4fd0-94c3-c42842eb513e" d="M34.8,48.9a53.4,53.4,0,0,1,13.9-1.4c13.8-35.1-28.6-28.2-13.9,1.4Z" transform="translate(0 -0.5)"/>
      <path class="f4bdbb52-a9e4-40e6-b0f0-0a6aa51833f2" d="M35.6,48.3a45.9,45.9,0,0,1,11.8-1.2c12.2-31.8-24.1-25.7-11.8,1.2Z" transform="translate(0 -0.5)"/>
      <path class="b6a415ba-6107-4fd0-94c3-c42842eb513e" d="M52.4,48.3a33.3,33.3,0,0,1,11.9,4.6c21-26.5-12.5-41.3-11.9-4.6Z" transform="translate(0 -0.5)"/>
      <path class="f4bdbb52-a9e4-40e6-b0f0-0a6aa51833f2" d="M53.3,48.1a29.9,29.9,0,0,1,10.5,4c18.7-24.7-10.4-37.4-10.5-4Z" transform="translate(0 -0.5)"/>
      <path class="b6a415ba-6107-4fd0-94c3-c42842eb513e" d="M43.8,25.6c3.7-.1,6.8,4,6.9,9.3s-2.8,9.5-6.5,9.6-6.7-4.1-6.9-9.3S40.1,25.7,43.8,25.6Z" transform="translate(0 -0.5)"/>
      <path class="b6a415ba-6107-4fd0-94c3-c42842eb513e" d="M64.6,28.5c3.7.3,6.3,4.8,5.8,10s-3.8,9.1-7.5,8.8-6.2-4.8-5.8-10S60.9,28.2,64.6,28.5Z" transform="translate(0 -0.5)"/>
      <path class="f4bdbb52-a9e4-40e6-b0f0-0a6aa51833f2" d="M41,26.9a2.3,2.3,0,0,1,2.5,2.4,2.5,2.5,0,0,1-2.4,2.6,2.6,2.6,0,0,1-2.6-2.5A2.5,2.5,0,0,1,41,26.9Z" transform="translate(0 -0.5)"/>
      <path class="f4bdbb52-a9e4-40e6-b0f0-0a6aa51833f2" d="M61.6,29.3a2.6,2.6,0,0,1,2,2.9,2.5,2.5,0,0,1-2.9,2,2.4,2.4,0,0,1-2-2.9A2.5,2.5,0,0,1,61.6,29.3Z" transform="translate(0 -0.5)"/>
      <path class="f4bdbb52-a9e4-40e6-b0f0-0a6aa51833f2" d="M46.8,40.9a1.6,1.6,0,0,1,1.6,1.6,1.4,1.4,0,0,1-1.5,1.6,1.7,1.7,0,0,1-1.7-1.6A1.6,1.6,0,0,1,46.8,40.9Z" transform="translate(0 -0.5)"/>
      <path class="f4bdbb52-a9e4-40e6-b0f0-0a6aa51833f2" d="M64.6,44.7a1.6,1.6,0,0,1,1.3,1.9,1.5,1.5,0,0,1-1.8,1.3,1.6,1.6,0,0,1-1.4-1.8A1.8,1.8,0,0,1,64.6,44.7Z" transform="translate(0 -0.5)"/>
      <path class="b6a415ba-6107-4fd0-94c3-c42842eb513e" d="M31.3,49.6c7.2-1.5,14-2.4,19-1-1.9-5.6-15.7-1.1-19,1Z" transform="translate(0 -0.5)"/>
      <path class="b6a415ba-6107-4fd0-94c3-c42842eb513e" d="M51.1,48.5c5.4-3.3,13.2,2.4,15.6,6.2a37.2,37.2,0,0,0-15.6-6.2Z" transform="translate(0 -0.5)"/>
    </g>
  </g>
</svg>
