<svg id="ffc6efdb-64f3-4df3-b7e1-e6d3f9066630" data-name="Capa 1" xmlns="http://www.w3.org/2000/svg" width="70" height="70" viewBox="0 0 100 99.1">
  <defs>
    <style>
      .a05a06dc-9cc0-442d-939a-e8fd0923129f {
        fill: #ecedef;
      }

      .bc17677c-e651-47b7-8344-78ce3c2a9ca2 {
        fill: #c02e36;
      }

      .a1266f07-896a-4c46-8498-41935f6cca1a, .a5daae2e-9ce1-4d18-87ab-ba414b4f100c {
        fill: #fff;
      }

      .f7650f92-7f29-4454-867a-fa9d4da529ce {
        fill: #040006;
      }

      .a5daae2e-9ce1-4d18-87ab-ba414b4f100c, .a8fb3158-a60f-4d8b-9584-f8aff39ade6c, .f7650f92-7f29-4454-867a-fa9d4da529ce {
        fill-rule: evenodd;
      }

      .a8fb3158-a60f-4d8b-9584-f8aff39ade6c {
        fill: #ebebeb;
      }
    </style>
  </defs>
  <title>ficha5</title>
  <g>
    <g>
      <ellipse class="a05a06dc-9cc0-442d-939a-e8fd0923129f" cx="50" cy="49.5" rx="50" ry="49.5"/>
      <circle class="bc17677c-e651-47b7-8344-78ce3c2a9ca2" cx="48.9" cy="49.1" r="48" transform="translate(-20.4 48.5) rotate(-45)"/>
      <path class="a1266f07-896a-4c46-8498-41935f6cca1a" d="M49,84.3h-.1a34.2,34.2,0,0,1-9-1.2,1,1,0,0,1-.8-1.3,1.1,1.1,0,0,1,1.3-.8,35.4,35.4,0,0,0,8.5,1.1,1.2,1.2,0,0,1,1.2,1.1A1.1,1.1,0,0,1,49,84.3Zm8.8-1.1a1.2,1.2,0,0,1-1.1-.9,1.1,1.1,0,0,1,.8-1.3,36.6,36.6,0,0,0,7.9-3.3,1.1,1.1,0,0,1,1.5.4,1,1,0,0,1-.4,1.5,36.4,36.4,0,0,1-8.4,3.5ZM31.9,79.8l-.5-.2a35.8,35.8,0,0,1-7.3-5.5,1.1,1.1,0,1,1,1.6-1.6,31.4,31.4,0,0,0,6.8,5.2,1.1,1.1,0,0,1,.4,1.5A1.1,1.1,0,0,1,31.9,79.8ZM73,74.3a1.1,1.1,0,0,1-.7-.3,1,1,0,0,1,0-1.6,31.4,31.4,0,0,0,5.2-6.8,1.1,1.1,0,0,1,1.9,1.1A33,33,0,0,1,73.8,74,1.1,1.1,0,0,1,73,74.3Zm-53.5-7a1.2,1.2,0,0,1-1-.5A37.1,37.1,0,0,1,15,58.3a1,1,0,0,1,.7-1.3,1.2,1.2,0,0,1,1.4.7,32.9,32.9,0,0,0,3.3,8,1.1,1.1,0,0,1-.4,1.5Zm62.4-8.2h-.3a1,1,0,0,1-.8-1.3,35.6,35.6,0,0,0,1.1-8.6h0A1.1,1.1,0,0,1,83,47.9h0A1.1,1.1,0,0,1,84.1,49h0a34.4,34.4,0,0,1-1.2,9.1A1.2,1.2,0,0,1,81.9,59.1Zm-67-8.8a1.1,1.1,0,0,1-1.1-1.1h0a38.9,38.9,0,0,1,1.1-9,1.2,1.2,0,0,1,1.4-.8,1.2,1.2,0,0,1,.8,1.4A29.8,29.8,0,0,0,16,49.1,1.1,1.1,0,0,1,14.9,50.3Zm66.9-9a1,1,0,0,1-1-.8,30.9,30.9,0,0,0-3.4-7.9,1.3,1.3,0,0,1,.4-1.6,1.1,1.1,0,0,1,1.5.4,33.4,33.4,0,0,1,3.6,8.5,1.2,1.2,0,0,1-.8,1.4Zm-62.4-8-.6-.2a1.1,1.1,0,0,1-.4-1.5A39.4,39.4,0,0,1,24,24.3a1.1,1.1,0,0,1,1.6,1.6,31.9,31.9,0,0,0-5.3,6.8A1,1,0,0,1,19.4,33.3Zm53.5-7.2a.9.9,0,0,1-.7-.4,39,39,0,0,0-6.9-5.2,1.1,1.1,0,0,1-.4-1.5,1.1,1.1,0,0,1,1.5-.4,33,33,0,0,1,7.3,5.6,1,1,0,0,1,0,1.5A.9.9,0,0,1,72.9,26.1ZM31.8,20.8a1,1,0,0,1-.9-.6,1,1,0,0,1,.4-1.5,36.4,36.4,0,0,1,8.4-3.5,1.1,1.1,0,0,1,1.4.8,1.1,1.1,0,0,1-.8,1.3,36.6,36.6,0,0,0-7.9,3.3Zm25.8-3.5h-.2a30.5,30.5,0,0,0-8.5-1.1h-.1a1.1,1.1,0,0,1,0-2.2h.1a38.2,38.2,0,0,1,9,1.1,1.1,1.1,0,0,1,.8,1.4A1.1,1.1,0,0,1,57.6,17.3Z" transform="translate(0 -0.5)"/>
      <path class="a1266f07-896a-4c46-8498-41935f6cca1a" d="M44.3,9.3h12a1.8,1.8,0,0,0,1.8-1.7l.3-5.5a49.4,49.4,0,0,0-9.5-.9,51.9,51.9,0,0,0-6.8.5l.4,5.9A1.8,1.8,0,0,0,44.3,9.3Z" transform="translate(0 -0.5)"/>
      <path class="a1266f07-896a-4c46-8498-41935f6cca1a" d="M12.1,33.2l6-10.4a1.7,1.7,0,0,0-.6-2.3L13,17.4A49.8,49.8,0,0,0,4.4,31.3l5.4,2.6A1.6,1.6,0,0,0,12.1,33.2Z" transform="translate(0 -0.5)"/>
      <path class="a1266f07-896a-4c46-8498-41935f6cca1a" d="M16.7,73.1l-6-10.4A1.8,1.8,0,0,0,8.4,62L3.5,64.4a49.9,49.9,0,0,0,7.7,14.4l5-3.3A1.8,1.8,0,0,0,16.7,73.1Z" transform="translate(0 -0.5)"/>
      <path class="a1266f07-896a-4c46-8498-41935f6cca1a" d="M53.6,89h-12a1.8,1.8,0,0,0-1.8,1.7l-.3,5.5a48.3,48.3,0,0,0,9.4.9,50.6,50.6,0,0,0,6.8-.5l-.3-5.9A1.8,1.8,0,0,0,53.6,89Z" transform="translate(0 -0.5)"/>
      <path class="a1266f07-896a-4c46-8498-41935f6cca1a" d="M85.8,65l-6,10.4a1.7,1.7,0,0,0,.5,2.4l4.6,3A45.5,45.5,0,0,0,93.4,67l-5.3-2.7A1.8,1.8,0,0,0,85.8,65Z" transform="translate(0 -0.5)"/>
      <path class="a1266f07-896a-4c46-8498-41935f6cca1a" d="M81.7,22.8a1.9,1.9,0,0,0-.6,2.4l6,10.4a1.9,1.9,0,0,0,2.4.7l4.9-2.5a48.5,48.5,0,0,0-7.8-14.3Z" transform="translate(0 -0.5)"/>
    </g>
    <g>
      <path class="f7650f92-7f29-4454-867a-fa9d4da529ce" d="M40.3,70.1c8.9-3.8,16.6-1,24,3.5-6.4-1.4-12.7-2.5-19.3-1.8a34.1,34.1,0,0,1,12.6-.6c-5.5-2.1-11.4-1.9-17.3-1.1Z" transform="translate(0 -0.5)"/>
      <path class="f7650f92-7f29-4454-867a-fa9d4da529ce" d="M72.6,54.2c2.3,6.5.7,13.3-5.6,20.2.7-1.5,1.3-2.9.7-3.4-13.5-9.3-25.2-8.9-35.3-.8-.3.2-.2.7,0,1.1s1.9,2.4,3.2,3.3c-5.1-2.1-7.3-6.3-8.6-11.2,1.2,2.2,2,4.5,3.8,6.1.2.2.6.2,1-.2,7.7-7.2,18.8-12.5,39-12.4.5,0,1,.2,1.4-.1s.3-1.6.4-2.6Z" transform="translate(0 -0.5)"/>
      <path class="a5daae2e-9ce1-4d18-87ab-ba414b4f100c" d="M42.6,63.1a39.7,39.7,0,0,1,10.2-3.5,9.1,9.1,0,0,1,.1,3.3,35.8,35.8,0,0,0-10.3.2Z" transform="translate(0 -0.5)"/>
      <path class="a8fb3158-a60f-4d8b-9584-f8aff39ade6c" d="M42.6,63.1a39.7,39.7,0,0,1,10.2-3.5c.1.4.1.8.2,1.2s-7.2,1.1-10.4,2.3Z" transform="translate(0 -0.5)"/>
      <path class="a5daae2e-9ce1-4d18-87ab-ba414b4f100c" d="M54.1,59.4c.1,1-.1,2.3,0,3.1s.4.5,1.1.7a47.4,47.4,0,0,1,6.2,2.4,1.1,1.1,0,0,0,1.5-.7c.7-1.9.7-4.5.8-6.9a39.8,39.8,0,0,0-9.6,1.4Z" transform="translate(0 -0.5)"/>
      <path class="a5daae2e-9ce1-4d18-87ab-ba414b4f100c" d="M64.9,58.1a49.3,49.3,0,0,1-.8,7.3,1.1,1.1,0,0,0,.6,1.4,17.6,17.6,0,0,1,3.9,2.5,1.1,1.1,0,0,0,1.5-.3,15.7,15.7,0,0,0,2.2-10.9,26.2,26.2,0,0,0-7.4,0Z" transform="translate(0 -0.5)"/>
      <path class="f7650f92-7f29-4454-867a-fa9d4da529ce" d="M24.7,45.4c-1.9,5.7-1.8,13.2,4.1,16.4-5-4.7-4.8-10.5-4.1-16.4Z" transform="translate(0 -0.5)"/>
      <path class="f7650f92-7f29-4454-867a-fa9d4da529ce" d="M66.5,36.8c4,4.4,4.3,9.9,3.1,15.5,2.2-6.4,1.9-12-1.7-16.4a14,14,0,0,1,1.6,4.6,15.7,15.7,0,0,0-3-3.7Z" transform="translate(0 -0.5)"/>
      <path class="f7650f92-7f29-4454-867a-fa9d4da529ce" d="M37,28c3.5-.3,7-.9,10.1,1,1.4-2.2,4.7-2.4,8-2.5A43.4,43.4,0,0,0,37,28Z" transform="translate(0 -0.5)"/>
      <path class="f7650f92-7f29-4454-867a-fa9d4da529ce" d="M36.6,26.2c5.7-3.7,12.7-5.3,18.9-1.5-6.7-2.3-12.9-1.2-18.9,1.5Z" transform="translate(0 -0.5)"/>
      <path class="f7650f92-7f29-4454-867a-fa9d4da529ce" d="M47.4,32.8c1.2.3,1.9,1.3,1.9,3,.5-5.4,3.6-5.6,6.2-6.9a22.5,22.5,0,0,0-8.1,3.9Z" transform="translate(0 -0.5)"/>
      <path class="f7650f92-7f29-4454-867a-fa9d4da529ce" d="M21.6,42.6c5.6-.6,10.8,1.8,16.8,2.4s8.9-3.4,7.9-7.2-4.6-5.3-8.4-6c4.4,0,8.2.7,9.7,5.8s7.7,7,11.1,1.4c5.2-8.4,8.8-6.8,12.8-7.1-2.9.3-6.1.5-7.7,3s-.1,2.2.4,3.1c9.6,16.5-9.8,24.7-13.2,6a7.5,7.5,0,0,1-3.3-1.9,11.2,11.2,0,0,1-2.5,2.8c-1.2,21-20,22.3-16.7,2.1.9-3.5-3.5-3.6-6.9-4.4Z" transform="translate(0 -0.5)"/>
      <path class="a5daae2e-9ce1-4d18-87ab-ba414b4f100c" d="M30.3,44.4c-5.6,20.7,11.5,20.9,13.8,1.8a33.7,33.7,0,0,1-13.8-1.8Z" transform="translate(0 -0.5)"/>
      <path class="a5daae2e-9ce1-4d18-87ab-ba414b4f100c" d="M52.2,44.1c4.1,18.5,21.2,7.5,9.8-7.7-2.2,4.2-4.7,7.4-9.8,7.7Z" transform="translate(0 -0.5)"/>
      <path class="f7650f92-7f29-4454-867a-fa9d4da529ce" d="M32.8,44.6a20.9,20.9,0,0,0,9.9.8c-2.9,15-12.5,14.3-9.9-.8Z" transform="translate(0 -0.5)"/>
      <path class="f7650f92-7f29-4454-867a-fa9d4da529ce" d="M53.9,43.5c3.2-1.3,5.6-3.8,7.6-6.9,7,12.9-3.4,22.2-7.6,6.9Z" transform="translate(0 -0.5)"/>
      <path class="a5daae2e-9ce1-4d18-87ab-ba414b4f100c" d="M33.2,45.3a1.6,1.6,0,0,1,1.5,1.8,1.6,1.6,0,0,1-1.9,1.5,1.7,1.7,0,0,1,.4-3.3Z" transform="translate(0 -0.5)"/>
      <path class="a5daae2e-9ce1-4d18-87ab-ba414b4f100c" d="M39.8,52.2a1.2,1.2,0,0,1,1,1.3,1.1,1.1,0,0,1-1.3,1,1.1,1.1,0,0,1-1-1.3A1.1,1.1,0,0,1,39.8,52.2Z" transform="translate(0 -0.5)"/>
      <path class="a5daae2e-9ce1-4d18-87ab-ba414b4f100c" d="M55.6,44a1.8,1.8,0,0,1,1.5,2,1.8,1.8,0,0,1-3.5-.4A1.8,1.8,0,0,1,55.6,44Z" transform="translate(0 -0.5)"/>
      <path class="a5daae2e-9ce1-4d18-87ab-ba414b4f100c" d="M63.6,46a1.1,1.1,0,0,1,1,1.3,1.2,1.2,0,0,1-2.3-.3A1.1,1.1,0,0,1,63.6,46Z" transform="translate(0 -0.5)"/>
      <path class="f7650f92-7f29-4454-867a-fa9d4da529ce" d="M42.9,41.7c1,0,1.8,1.6.1,2-4.3.8-8.7-.8-13.3-2.6-2.7-1-6-.2-9.2.1,3.1-.7,5.9-2.2,9.7-1.3s8.6,2.1,12.7,1.8Z" transform="translate(0 -0.5)"/>
      <path class="f7650f92-7f29-4454-867a-fa9d4da529ce" d="M55.3,40.7a10.5,10.5,0,0,0,3.3-3.6c2.4-4.3,6.3-6.2,10.6-7.1A14,14,0,0,0,57,35.8a11.3,11.3,0,0,1-2.2,2.7c-3.1,2.3-4,5.1.5,2.2Z" transform="translate(0 -0.5)"/>
    </g>
  </g>
</svg>
