<svg id="b0038bd5-ec76-4548-8446-36b802181c81" data-name="Capa 1" xmlns="http://www.w3.org/2000/svg" width="70" height="70" viewBox="0 0 100 99.1">
  <defs>
    <style>
      .e368707c-07c4-4695-a177-5a76eb4eb3e1 {
        fill: #ecedef;
      }

      .faa26f4b-18cc-4b46-b1ed-2209909c412c {
        fill: #d4822d;
      }

      .e54a3e02-0d21-4306-9128-f33f07b0ef77, .f0078860-6ea0-4cb3-86a1-c76175023d01 {
        fill: #fff;
      }

      .afd9cb15-37b9-4685-a808-317f18979584 {
        fill: #040006;
      }

      .afd9cb15-37b9-4685-a808-317f18979584, .f0078860-6ea0-4cb3-86a1-c76175023d01 {
        fill-rule: evenodd;
      }
    </style>
  </defs>
  <title>ficha4</title>
  <g>
    <g>
      <ellipse class="e368707c-07c4-4695-a177-5a76eb4eb3e1" cx="50" cy="49.5" rx="50" ry="49.5"/>
      <circle class="faa26f4b-18cc-4b46-b1ed-2209909c412c" cx="48.9" cy="49.1" r="48" transform="translate(-20.4 48.5) rotate(-45)"/>
      <path class="e54a3e02-0d21-4306-9128-f33f07b0ef77" d="M49,84.3h-.1a34.2,34.2,0,0,1-9-1.2,1,1,0,0,1-.8-1.3,1.1,1.1,0,0,1,1.3-.8,35.4,35.4,0,0,0,8.5,1.1,1.2,1.2,0,0,1,1.2,1.1A1.1,1.1,0,0,1,49,84.3Zm8.8-1.1a1.2,1.2,0,0,1-1.1-.9,1.1,1.1,0,0,1,.8-1.3,36.6,36.6,0,0,0,7.9-3.3,1.1,1.1,0,0,1,1.5.4,1,1,0,0,1-.4,1.5,36.4,36.4,0,0,1-8.4,3.5ZM31.9,79.8l-.5-.2a35.8,35.8,0,0,1-7.3-5.5,1.1,1.1,0,1,1,1.6-1.6,31.4,31.4,0,0,0,6.8,5.2,1.1,1.1,0,0,1,.4,1.5A1.1,1.1,0,0,1,31.9,79.8ZM73,74.3a1.1,1.1,0,0,1-.7-.3,1,1,0,0,1,0-1.6,31.4,31.4,0,0,0,5.2-6.8,1.1,1.1,0,0,1,1.9,1.1A33,33,0,0,1,73.8,74,1.1,1.1,0,0,1,73,74.3Zm-53.5-7a1.2,1.2,0,0,1-1-.5A37.1,37.1,0,0,1,15,58.3a1,1,0,0,1,.7-1.3,1.2,1.2,0,0,1,1.4.7,32.9,32.9,0,0,0,3.3,8,1.1,1.1,0,0,1-.4,1.5Zm62.4-8.2h-.3a1,1,0,0,1-.8-1.3,35.6,35.6,0,0,0,1.1-8.6h0A1.1,1.1,0,0,1,83,47.9h0A1.1,1.1,0,0,1,84.1,49h0a34.4,34.4,0,0,1-1.2,9.1A1.2,1.2,0,0,1,81.9,59.1Zm-67-8.8a1.1,1.1,0,0,1-1.1-1.1h0a38.9,38.9,0,0,1,1.1-9,1.2,1.2,0,0,1,1.4-.8,1.2,1.2,0,0,1,.8,1.4A29.8,29.8,0,0,0,16,49.1,1.1,1.1,0,0,1,14.9,50.3Zm66.9-9a1,1,0,0,1-1-.8,30.9,30.9,0,0,0-3.4-7.9,1.3,1.3,0,0,1,.4-1.6,1.1,1.1,0,0,1,1.5.4,33.4,33.4,0,0,1,3.6,8.5,1.2,1.2,0,0,1-.8,1.4Zm-62.4-8-.6-.2a1.1,1.1,0,0,1-.4-1.5A39.4,39.4,0,0,1,24,24.3a1.1,1.1,0,0,1,1.6,1.6,31.9,31.9,0,0,0-5.3,6.8A1,1,0,0,1,19.4,33.3Zm53.5-7.2a.9.9,0,0,1-.7-.4,39,39,0,0,0-6.9-5.2,1.1,1.1,0,0,1-.4-1.5,1.1,1.1,0,0,1,1.5-.4,33,33,0,0,1,7.3,5.6,1,1,0,0,1,0,1.5A.9.9,0,0,1,72.9,26.1ZM31.8,20.8a1,1,0,0,1-.9-.6,1,1,0,0,1,.4-1.5,36.4,36.4,0,0,1,8.4-3.5,1.1,1.1,0,0,1,1.4.8,1.1,1.1,0,0,1-.8,1.3,36.6,36.6,0,0,0-7.9,3.3Zm25.8-3.5h-.2a30.5,30.5,0,0,0-8.5-1.1h-.1a1.1,1.1,0,0,1,0-2.2h.1a38.2,38.2,0,0,1,9,1.1,1.1,1.1,0,0,1,.8,1.4A1.1,1.1,0,0,1,57.6,17.3Z" transform="translate(0 -0.5)"/>
      <path class="e54a3e02-0d21-4306-9128-f33f07b0ef77" d="M44.3,9.3h12a1.8,1.8,0,0,0,1.8-1.7l.3-5.5a49.4,49.4,0,0,0-9.5-.9,51.9,51.9,0,0,0-6.8.5l.4,5.9A1.8,1.8,0,0,0,44.3,9.3Z" transform="translate(0 -0.5)"/>
      <path class="e54a3e02-0d21-4306-9128-f33f07b0ef77" d="M12.1,33.2l6-10.4a1.7,1.7,0,0,0-.6-2.3L13,17.4A49.8,49.8,0,0,0,4.4,31.3l5.4,2.6A1.6,1.6,0,0,0,12.1,33.2Z" transform="translate(0 -0.5)"/>
      <path class="e54a3e02-0d21-4306-9128-f33f07b0ef77" d="M16.7,73.1l-6-10.4A1.8,1.8,0,0,0,8.4,62L3.5,64.4a49.9,49.9,0,0,0,7.7,14.4l5-3.3A1.8,1.8,0,0,0,16.7,73.1Z" transform="translate(0 -0.5)"/>
      <path class="e54a3e02-0d21-4306-9128-f33f07b0ef77" d="M53.6,89h-12a1.8,1.8,0,0,0-1.8,1.7l-.3,5.5a48.3,48.3,0,0,0,9.4.9,50.6,50.6,0,0,0,6.8-.5l-.3-5.9A1.8,1.8,0,0,0,53.6,89Z" transform="translate(0 -0.5)"/>
      <path class="e54a3e02-0d21-4306-9128-f33f07b0ef77" d="M85.8,65l-6,10.4a1.7,1.7,0,0,0,.5,2.4l4.6,3A45.5,45.5,0,0,0,93.4,67l-5.3-2.7A1.8,1.8,0,0,0,85.8,65Z" transform="translate(0 -0.5)"/>
      <path class="e54a3e02-0d21-4306-9128-f33f07b0ef77" d="M81.7,22.8a1.9,1.9,0,0,0-.6,2.4l6,10.4a1.9,1.9,0,0,0,2.4.7l4.9-2.5a48.5,48.5,0,0,0-7.8-14.3Z" transform="translate(0 -0.5)"/>
    </g>
    <g>
      <path class="afd9cb15-37b9-4685-a808-317f18979584" d="M34.5,32.1a47.7,47.7,0,0,0,11.3.6c10,15.9-7.3,30.4-21.5,26.3,6.4.5,10.9-.6,13.9-2.9-16.2,2.1-11.9-17.5-3.7-24Z" transform="translate(0 -0.5)"/>
      <path class="afd9cb15-37b9-4685-a808-317f18979584" d="M56.7,34.7C52.4,49.1,59,61.9,74.4,63.2c-2.6-1.1-6.6-2.1-7.3-3.5,5.8-1.8,7.9-9.6,5.3-18.8-5.6-.7-10.7-3.3-15.7-6.2Z" transform="translate(0 -0.5)"/>
      <path class="f0078860-6ea0-4cb3-86a1-c76175023d01" d="M35.3,32.3,46,33.7c8.9,28.1-32.2,26.5-10.7-1.4Z" transform="translate(0 -0.5)"/>
      <path class="f0078860-6ea0-4cb3-86a1-c76175023d01" d="M57.6,35.7c-5.3,23.9,18.6,32.5,14.2,5.4L57.6,35.7Z" transform="translate(0 -0.5)"/>
      <path class="afd9cb15-37b9-4685-a808-317f18979584" d="M28.9,29.9a41.4,41.4,0,0,0,8.7,3.7c4.9,1.4,20-.4,12.8-8.4.4,7.4-7.2,9-21.5,4.7Z" transform="translate(0 -0.5)"/>
      <path class="afd9cb15-37b9-4685-a808-317f18979584" d="M56.1,27.9c-5,9.3,15.5,18.7,22.4,11.4C70,43.2,55.7,36,56.1,27.9Z" transform="translate(0 -0.5)"/>
      <path class="afd9cb15-37b9-4685-a808-317f18979584" d="M60.4,36.9a10.3,10.3,0,0,0,6.2,3c4.7,20.5-11.3,13.8-6.2-3Z" transform="translate(0 -0.5)"/>
      <path class="afd9cb15-37b9-4685-a808-317f18979584" d="M44.2,33.4c2.2.9,2.7,5,1.1,9.3s-4.7,7-6.9,6.2-2.8-5-1.2-9.3S41.9,32.6,44.2,33.4Z" transform="translate(0 -0.5)"/>
      <path class="f0078860-6ea0-4cb3-86a1-c76175023d01" d="M40.1,34.4a1.8,1.8,0,0,1,1.7,1.8,1.8,1.8,0,0,1-1.7,1.7,1.8,1.8,0,0,1-1.8-1.7A1.8,1.8,0,0,1,40.1,34.4Z" transform="translate(0 -0.5)"/>
      <path class="f0078860-6ea0-4cb3-86a1-c76175023d01" d="M42.8,45.7A1.2,1.2,0,0,1,44,46.9,1.1,1.1,0,0,1,42.8,48a1.1,1.1,0,0,1-1.1-1.1A1.1,1.1,0,0,1,42.8,45.7Z" transform="translate(0 -0.5)"/>
      <path class="f0078860-6ea0-4cb3-86a1-c76175023d01" d="M60.6,39a1.8,1.8,0,0,1,1.8,1.9,1.8,1.8,0,0,1-1.8,1.8,1.8,1.8,0,0,1-1.9-1.8A1.8,1.8,0,0,1,60.6,39Z" transform="translate(0 -0.5)"/>
      <path class="f0078860-6ea0-4cb3-86a1-c76175023d01" d="M66.3,49.5a1.3,1.3,0,0,1,0,2.6,1.3,1.3,0,1,1,0-2.6Z" transform="translate(0 -0.5)"/>
      <path class="afd9cb15-37b9-4685-a808-317f18979584" d="M18.5,62.5c-.7-2.5,1.1-4.3,3.4-4.5a9,9,0,0,0-3.4,4.5Z" transform="translate(0 -0.5)"/>
      <path class="afd9cb15-37b9-4685-a808-317f18979584" d="M75.6,64.2c2.1,3.5,3,6.5,2.6,9,1.6-3.2,1.5-7.6-2.6-9Z" transform="translate(0 -0.5)"/>
      <path class="afd9cb15-37b9-4685-a808-317f18979584" d="M78.9,62.6c1.2,2,2.3,4,2.3,6,1-2.7.2-4.7-2.3-6Z" transform="translate(0 -0.5)"/>
      <path class="afd9cb15-37b9-4685-a808-317f18979584" d="M22.2,59.6c1-.9,2.1.2,1.3,1.4a18.3,18.3,0,0,0-3.2,7.4c-.4-3.4-.4-6.7,1.9-8.8Z" transform="translate(0 -0.5)"/>
      <path class="afd9cb15-37b9-4685-a808-317f18979584" d="M73.7,65.5c2.8,2.6,2.4,6.5.2,9.3a36.5,36.5,0,0,0-.2-9.3Z" transform="translate(0 -0.5)"/>
      <path class="afd9cb15-37b9-4685-a808-317f18979584" d="M65.2,68.5a42.2,42.2,0,0,0-27.7-.8c7.6-.2,15.2-.2,22,2.8-1-1.2-3.8-2.4-6.9-3.5q6.3.4,12.6,1.5Z" transform="translate(0 -0.5)"/>
      <path class="afd9cb15-37b9-4685-a808-317f18979584" d="M21.8,61.7c2.1,2.4,4.5,3.6,11.2,1.7,14.6-4.1,29-3.9,41.9,5.6.1.8.1,1.6.2,2.4-12.6-10.1-26.4-11.2-41.9-6-6.9,2.3-10.2.1-12.2-2.7l.8-1Z" transform="translate(0 -0.5)"/>
    </g>
  </g>
</svg>
