<svg id="bfd5e29b-0bf6-4dc9-9bb3-68cddb9861ed" data-name="Layer 1" xmlns="http://www.w3.org/2000/svg" width="91" height="150" viewBox="0 0 129.4 213">
  <defs>
    <style>
      .bab9d4a3-1ec5-4de5-af05-f46eea406002 {
        fill: #fdfeff;
      }

      .e49ef0b9-9296-4d2f-afd4-c64c2673ac7a {
        fill: #fff;
      }

      .e122cf49-2e4a-4adf-bb1d-238d72f2f54a {
        fill: #ed1c24;
      }

      .a574f48d-10f1-4aaf-86bb-2b40130487b3 {
        opacity: 0.24;
      }
    </style>
  </defs>
  <title>naipe</title>
  <path class="bab9d4a3-1ec5-4de5-af05-f46eea406002" d="M53.8,212c-39.1-.2-47.4,1.1-48-4.5S.6,177.9.6,116.8s1-81,13.1-88.3S51.5,10.4,83.2,4.1,129,.5,128.8,3.3s-14.9,60.3-21.5,104.1c-9,60.1,4.4,95.1,3.3,96S87.1,212.2,53.8,212Z"/>
  <path d="M0,117.1c0,45.9,2.5,70.8,4.1,82.8.5,4,.9,6.6,1.1,8a4.2,4.2,0,0,0,.4,1.6,4,4,0,0,0,1,1.2,7.8,7.8,0,0,0,3.9,1.5c3.4.7,8.9.8,17.6.8H53.8v0h1a195,195,0,0,0,35.1-3.1,108,108,0,0,0,18.9-4.7h.6l1.1-.5h.4l.2-.3h.1v-.3h0a9.9,9.9,0,0,0-.3-1.9c-.1-.4-.2-1-.3-1.5s-.3-1.1-.4-1.8c-.6-2.7-1.4-6.3-2.2-11a224.6,224.6,0,0,1-3.2-38.6,275.6,275.6,0,0,1,3.1-40.9c3.1-20.4,8-44,12.3-63.5s8.1-35,9-39.4c.1-.6.2-1,.2-1.2h0V3.4h0V3.2h0a.1.1,0,0,0-.1-.1h0V2.7H129l-.2-.2h-.2c0-.1,0-.1-.1-.1h-.7L125.7.9A47.6,47.6,0,0,0,115.6,0c-7.5,0-18.2,1-32.5,3.9C51.3,10.2,25.6,21,13.4,28.3A18.6,18.6,0,0,0,6,36.9c-1.8,3.9-3.1,9-4,15.8C.2,66.3,0,86.6,0,117.1Zm3.6,66.1c-1.3-14.3-2.4-35.5-2.4-66.1,0-22.9.1-40,1-52.8S4.5,43,7.1,37.4a16.7,16.7,0,0,1,6.9-8C26.1,22.1,51.7,11.3,83.3,5c14.2-2.8,24.9-3.8,32.3-3.8a67.3,67.3,0,0,1,7.2.4,19.2,19.2,0,0,1,3.7.8,6.4,6.4,0,0,0-.2.7c-.1.6-.3,1.4-.5,2.4s-1.1,4.7-1.8,8c-1.6,6.7-3.7,15.7-6,26-4.6,20.6-10,46.3-13.3,68.2a269,269,0,0,0-3.1,40.6,233.9,233.9,0,0,0,2.6,35.4c1.4,9.2,3,15.6,3.7,18.9.1.6.2,1.2.3,1.6l-2.4.8c-2.7.8-6.5,1.8-11.4,2.8a188.8,188.8,0,0,1-39.6,4H28.1c-5.7,0-10-.1-13.2-.3a19.8,19.8,0,0,1-6.6-1.2,2.8,2.8,0,0,1-1.6-1.4,2,2,0,0,1-.3-1.1c-.2-1.5-.6-4-1.1-8S4.2,190.4,3.6,183.2Z"/>
  <path d="M83,35s-13.1-15.2-22.7.2c0,0-1.5-9.6,4.7-15S79.5,23.1,83,35Z"/>
  <path d="M45.9,47.4a12.4,12.4,0,0,0-13.8,6.8s-1.1-7,3.1-9.5S45.9,47.4,45.9,47.4Z"/>
  <path class="bab9d4a3-1ec5-4de5-af05-f46eea406002" d="M29.1,108.9c.5-1.2,8.2-2.8,8.2-2.8-4.1-7.8-2.7-13.3-2-15.1h2c11-.5,16.7,5.9,28.2,2.6S88.4,80,92,75.3A198.3,198.3,0,0,1,82.7,104c-6.6,15.9-9.9,31.7-23.6,29.1-8.6-1.7-22.1-6.2-31.1-6.6C27.9,122.3,28.5,110,29.1,108.9Z"/>
  <path d="M18.8,131.4a8.4,8.4,0,0,1,.5-1.7,4.7,4.7,0,0,1,1.1-1.3l1.5-.9,1.6-.4a21.1,21.1,0,0,1,3.5-.2,21.9,21.9,0,0,1,3.6.3,60.3,60.3,0,0,1,7,1.2l6.9,1.7,6.9,1.8c2.4.6,4.7,1.2,7,1.6l.9.2,1,.2h1.8a11.5,11.5,0,0,0,3.7-.6,10.1,10.1,0,0,0,3.4-1.8,13.3,13.3,0,0,0,2.7-2.6,16.1,16.1,0,0,0,2.1-3,32.4,32.4,0,0,0,1.7-3.2c1.1-2.1,2-4.4,2.9-6.6s1.7-4.4,2.6-6.7l1.3-3.3a12.2,12.2,0,0,1,.7-1.7l.6-1.6c1.8-4.5,3.4-9,4.9-13.6l2.1-6.8.9-3.5a11.6,11.6,0,0,0,.4-1.8,8.5,8.5,0,0,0,.4-1.7,2.5,2.5,0,0,0,.4-.7l.5.6a6.1,6.1,0,0,1,.9,1.6l.3.9c.1.4.1.7.2,1a3.4,3.4,0,0,0,.1-1c0-.3-.1-.7-.1-1a4.8,4.8,0,0,0-.7-2l-.7-.9-.8-.7a5,5,0,0,0-2-.8l-1-.2H88.5l-2,.2-2,.6a7.6,7.6,0,0,0-1.8.9,26.6,26.6,0,0,1,3.9-.7h2.9l.9.2.9.3.6.3a.3.3,0,0,1-.1.2l-.4.8c-1,1.2-2,2.3-3.1,3.4l-3.6,3.2a82.6,82.6,0,0,1-7.6,5.6,44.9,44.9,0,0,1-4.2,2.4,33.6,33.6,0,0,1-4.3,2,25.9,25.9,0,0,1-4.5,1.4,18.2,18.2,0,0,1-4.6.6,18.7,18.7,0,0,1-4.7-.4,25.6,25.6,0,0,1-4.6-1.1L45.5,91a38.5,38.5,0,0,0-4.9-.7,26.8,26.8,0,0,0-4.9.1,19.9,19.9,0,0,0-4.8,1.2,12.6,12.6,0,0,0-4.2,2.7,9,9,0,0,0-1.5,1.9l-.6,1.1c-.1.2-.1.4-.2.6s-.1.4-.2.6l.6-1.1.7-1a12.9,12.9,0,0,1,1.7-1.6,15,15,0,0,1,4.1-2.3,18.7,18.7,0,0,1,3.4-.8,13.2,13.2,0,0,0-.6,4.1,22.1,22.1,0,0,0,2.7,10.1h-.2l-5.2,1.4a7.6,7.6,0,0,0-2,.8l-.7.6a6.4,6.4,0,0,0-.2.9,10.4,10.4,0,0,1-.2,1.5c-.1,1.2-.2,2.7-.3,4.3-.2,3.3-.3,7.1-.3,9.6v1H27a14.6,14.6,0,0,0-3.6.3l-.9.3-.9.3a5.3,5.3,0,0,0-1.5,1.1,3.4,3.4,0,0,0-1,1.6A5.2,5.2,0,0,0,18.8,131.4Zm9.6-6.4c0-2.2.1-5.3.3-8.3s.3-5.7.5-7l.2-.7.2-.2.6-.3,1.8-.7,4-1-.2,5.2c-.1,1.8-.2,3.6-.4,5.5.3-1.9.5-3.7.7-5.5l.7-5.4h.8l1.2-.3,2.1-.4,4.1-.8-4.2.4-2.1.3H37.5a21,21,0,0,1-2.6-9.9,13.4,13.4,0,0,1,.6-4.2h5a35.5,35.5,0,0,1,4.7.8h.1c0,.1.1.3.1.4s.1.7.2,1.1a15.5,15.5,0,0,1,.4,2.1.9.9,0,0,1,.1.5l.5,3.8c0-1.4-.1-2.9-.2-4.3s-.1-1.5-.2-2.2-.1-.7-.2-1.1h0l3.8,1a42.1,42.1,0,0,0,4.8,1.2,20.3,20.3,0,0,0,4.9.4h2v1.8c0,.8.1,1.7.1,2.5a21.1,21.1,0,0,0,.2-2.5l.2-1.8,2.3-.5a23.3,23.3,0,0,0,4.7-1.4,54.1,54.1,0,0,0,8.3-4.3v1.9c0,.5-.1,1-.1,1.6l-.8,6.5a13.1,13.1,0,0,0,.6-2.7,25.6,25.6,0,0,0,.5-2.7l.3-2.7a19.4,19.4,0,0,0,.2-2.4,71.7,71.7,0,0,0,7.1-5.2,1.7,1.7,0,0,1,1.6.6c.7,1,.8,3,.8,4.9a.4.4,0,0,0-.1.3c-1.3,3.8-2.6,7.6-4.1,11.3-1.3.8-3.6,1.5-8,1.6-9.3.2-18.6.8-22.4,2.2a55.3,55.3,0,0,1,17.6,2.1c5.9,1.8,7.8,3.9,8.1,6.2l-1.3,3.4c-.9,2.2-1.8,4.4-2.8,6.6l-1.7,3.1a28.3,28.3,0,0,1-2,2.8,18.8,18.8,0,0,1-2.5,2.4,10.8,10.8,0,0,1-3,1.6l-1.5.4.6-4.2L68.3,111c-.6,1.8-1.1,3.6-1.6,5.5s-.9,3.6-1.4,5.5l-1.2,5.6-.9,5.1H59.6l-.9-.2c-2.3-.4-4.6-1-7-1.6l-2.9-.7c.2-1.4.5-2.9.7-4.3l.8-4.6,1.6-9.3L50,121l-1,4.6-.9,4.2-3.3-.8c-2.3-.6-4.7-1.2-7-1.6a58.5,58.5,0,0,0-7.1-1.2l-2.3-.2Z"/>
  <g>
    <path class="e49ef0b9-9296-4d2f-afd4-c64c2673ac7a" d="M74.6,56.6a38,38,0,0,1,.3,16.6c-9.2,4.9-11.8,3.6-12.6,1.7s-1.9-14.9,3.4-26C69.2,48.4,73.1,50.5,74.6,56.6Z"/>
    <path d="M65.3,76.9h0a4.2,4.2,0,0,1-2.2-.5h0A2.9,2.9,0,0,1,62,75h0a17.6,17.6,0,0,1-1-6.8h0a46.9,46.9,0,0,1,4.4-19.4v-.2h1.2a7.4,7.4,0,0,1,4.9,1.9h0a12.2,12.2,0,0,1,3.3,6.1h0A40.2,40.2,0,0,1,76,65.7h0a30.6,30.6,0,0,1-.8,7.6H75c-4.7,2.5-7.7,3.4-9.7,3.4Zm0-.6c1.7,0,4.6-.9,9.3-3.3h0a33.6,33.6,0,0,0,.7-7.3h0a38.1,38.1,0,0,0-1-9h0a10.7,10.7,0,0,0-3.2-5.8h0a6.4,6.4,0,0,0-4.4-1.7H66a44.7,44.7,0,0,0-4.3,19h0a17.5,17.5,0,0,0,.9,6.5h0a1.9,1.9,0,0,0,.8,1.1h0a3.1,3.1,0,0,0,1.9.5Z"/>
  </g>
  <path class="e49ef0b9-9296-4d2f-afd4-c64c2673ac7a" d="M42.4,54.9A9.8,9.8,0,0,1,46,58.6c4.1,6.6,2.6,17.7,2.2,19.9a8.6,8.6,0,0,0-3.3.8,7.7,7.7,0,0,1-5.6.5,7.3,7.3,0,0,0-2.3-.4C36.6,64.3,41.2,56.7,42.4,54.9Z"/>
  <path d="M43,72.2c0,2.4,1.3,4.3,2.8,4.3s2.9-1.9,2.9-4.3-1.3-4.4-2.9-4.4S43,69.8,43,72.2Z"/>
  <path d="M67.9,67.6c0,2.8,1.5,5.2,3.4,5.2s3.3-2.4,3.3-5.2-1.5-5.2-3.3-5.2S67.9,64.7,67.9,67.6Z"/>
  <path class="e122cf49-2e4a-4adf-bb1d-238d72f2f54a" d="M88.7,162.8s-.5-4.3,4.3-10.2,4.8-11,2.2-12.8-6.8,1.4-6,4.4c0,0-2-3.7,2-10,0,0-1.3-1.5-5.2-1,0,0-1,6.4.6,10.5,0,0-2.1-4.6-5.5-3.6S79.6,155,88.7,162.8Z"/>
  <path d="M82.1,164.8h.3a58.9,58.9,0,0,0,1,9c0,.2,0,.3.1.4a51.5,51.5,0,0,0,5.7,15.5H86.4l.9.3.8.2,1.6.7,1.5.7,1.6.7a2,2,0,0,0-.6-.7l-.6-.6-.7-.5h0v-.2a113.1,113.1,0,0,1,.7-12.4,76.5,76.5,0,0,0,.6-9.4c0-1.4-.1-2.3-.1-2.6h1.3l-.5-.3-.5-.2-1-.2H90.3a1.9,1.9,0,0,0-1,.3l1.1.2h.5v.5c0,.5.1,1.1.1,2s-.1,4.1-.4,7.1a19.7,19.7,0,0,0-6-2,45.1,45.1,0,0,1-1-8.6h.5l.4-.2-.4-.2h-2l-.8.2Zm5.3,18.3a54.7,54.7,0,0,1-2.6-8.3,23.2,23.2,0,0,1,5.7,2,2.5,2.5,0,0,1-.1.8,102.1,102.1,0,0,0-.7,10.6A44.8,44.8,0,0,1,87.4,183.1Z"/>
  <path class="e122cf49-2e4a-4adf-bb1d-238d72f2f54a" d="M14,67.4s-.5,4.2,4.3,10.1,4.8,11,2.1,12.8-6.8-1.4-5.9-4.4c0,0-2.1,3.7,1.9,10,0,0-1.2,1.5-5.2,1,0,0-1-6.4.7-10.5,0,0-2.2,4.6-5.6,3.6S4.8,75.1,14,67.4Z"/>
  <path d="M5.9,65.7l.8.2h2l.4-.2-.4-.2H8.2a45.4,45.4,0,0,1,.9-8.6,21.6,21.6,0,0,0,6.1-2,67.5,67.5,0,0,1,.3,7.1v2.7h-.6l-1,.2a1.9,1.9,0,0,0,1,.3H16l1-.2.5-.2.4-.3H16.7V61.7c0-2.1-.1-5.4-.5-9.3-.7-6.3-.8-11.4-.8-12.5v-.2h0a1.8,1.8,0,0,0,.7-.5,1.3,1.3,0,0,0,.7-.6,1.8,1.8,0,0,0,.5-.7l-1.5.8-1.6.7-1.5.6-.9.3-.8.2h1.8l1-.2A51.5,51.5,0,0,0,8.1,55.8c-.1.1-.1.2-.1.4a48.2,48.2,0,0,0-1.1,9H6.7A2,2,0,0,0,5.9,65.7ZM9.4,55.3a55.9,55.9,0,0,1,4.9-13.4A102.1,102.1,0,0,0,15,52.5a1.9,1.9,0,0,0,.1.8c-.1.1-.2.1-.2.2l-1.6.6A16.4,16.4,0,0,1,9.4,55.3Z"/>
  <path d="M18.7,135.1l.6,2.8a22.9,22.9,0,0,0,.7,2.8l.2.7.2.7a5.7,5.7,0,0,0,.4,1.4,5.7,5.7,0,0,0,.4,1.4,7.4,7.4,0,0,0,.4,1.4,110.4,110.4,0,0,0,4.1,10.9,91.7,91.7,0,0,0,5.2,10.4c1,1.6,2,3.3,3.1,4.9a50.7,50.7,0,0,0,3.5,4.6c-1.1-1.6-2.1-3.3-3-4.9s-1.9-3.4-2.8-5.1c-1.8-3.4-3.5-6.8-5-10.4s-3-7-4.3-10.7a6.9,6.9,0,0,1-.5-1.3l-.5-1.4c-.2-.4-.3-.9-.5-1.3l-.4-1.4C19.8,138.8,19.3,136.9,18.7,135.1Z"/>
  <path d="M24.2,168.1c.1.5.1,1,.2,1.4l.3,1.5.9,2.9a53.8,53.8,0,0,0,2.4,5.5,53.9,53.9,0,0,0,3.3,5l1.9,2.3,2.2,2.1-1.7-2.5c-.5-.8-1.1-1.6-1.6-2.5l-3-5c-.9-1.8-1.8-3.5-2.6-5.3l-1.2-2.7Z"/>
  <path class="e49ef0b9-9296-4d2f-afd4-c64c2673ac7a" d="M61.4,68.9a46.3,46.3,0,0,1,4.3-20c3.5-.5,7.4,1.6,8.9,7.7a38.9,38.9,0,0,1,1,10.2C74.4,66.1,68.6,63.1,61.4,68.9Z"/>
  <path d="M61.1,70.4a11.1,11.1,0,0,0,.2,1.9,16.2,16.2,0,0,0,.4,1.9,1.6,1.6,0,0,0,.3.9,3.5,3.5,0,0,0,1.4,1.4l.9.4a6.6,6.6,0,0,0,2-.1,5.8,5.8,0,0,0,1.8-.4,20.9,20.9,0,0,0,3.5-1.3,25.3,25.3,0,0,0,3.3-1.6l1.7-.9,1.6-.9a25.3,25.3,0,0,1,3.3-1.6,20.1,20.1,0,0,1,3.5-1,8.8,8.8,0,0,1,3.6-.2,5.8,5.8,0,0,1,1.8.4l.8.4.8.5-.8-.6-.8-.4a6.1,6.1,0,0,0-1.8-.5,5.5,5.5,0,0,0-1.8-.1H84.9a24.2,24.2,0,0,0-3.6,1l-3.4,1.5-1.6.9a3.1,3.1,0,0,1-1,.5,23.8,23.8,0,0,0,.6-3.7,33.8,33.8,0,0,0,.1-4.5,22.5,22.5,0,0,0-.4-4.4l-.3-2.1-.6-2.2a12.3,12.3,0,0,0-1.9-4A12.9,12.9,0,0,0,71.2,50l-2-1.1h-.5a6.4,6.4,0,0,0-2-.3H65.5l-.8.2a9.3,9.3,0,0,0-2,1,6.1,6.1,0,0,0-1.6,1.6,6.6,6.6,0,0,1,1.7-1.2,5.6,5.6,0,0,1,2-.8h.4a38.1,38.1,0,0,0-2.4,6.4A47.3,47.3,0,0,0,61.3,63L61,66.7C61,68,61,69.2,61.1,70.4Zm14.2-4.2A11.1,11.1,0,0,0,70.2,65h0a14.4,14.4,0,0,0-8.5,3.2V66.7l.3-3.6.6-3.6c.3-1.2.5-2.4.9-3.6A34,34,0,0,1,66,49.2h.7a7.6,7.6,0,0,1,2.1.3h.1a5.4,5.4,0,0,1,1.8,1.1,5.4,5.4,0,0,1,1.5,1.5A12.1,12.1,0,0,1,74,55.9l.3,1.1c.1.3.1.7.2,1a15.5,15.5,0,0,1,.4,2.1c.2,1.5.3,2.9.4,4.4ZM61.8,70.4a6.6,6.6,0,0,1-.1-1.4,13.5,13.5,0,0,1,8.5-3.3,11.3,11.3,0,0,1,5.1,1.2c0,.7-.1,1.3-.1,1.9L74.9,71a12,12,0,0,1-.3,2l-3.2,1.6L68,75.9l-1.8.3H64.5l-.8-.2-.7-.5a4.3,4.3,0,0,1-.4-.7l-.3-.8a5.7,5.7,0,0,1-.3-1.8A11,11,0,0,1,61.8,70.4Z"/>
  <path class="e49ef0b9-9296-4d2f-afd4-c64c2673ac7a" d="M46.4,70.5c-1.7-.5-5.2,0-9.3,3.5.6-11.6,4.2-17.6,5.3-19.1A9.8,9.8,0,0,1,46,58.6c2.1,3.5,2.8,8.2,2.8,12.2A5.7,5.7,0,0,1,46.4,70.5Z"/>
  <path d="M31.5,83.1A9,9,0,0,1,33,81.3a3.1,3.1,0,0,1,.9-.7l.9-.5a4.3,4.3,0,0,1,1.9-.4h1.5l.9.3a10,10,0,0,0,2.4.4,10,10,0,0,0,2.4-.4l1.1-.4,1-.5,1.1-.2h.6c0-.1.1-.1.2-.1h.6v-.2c.2-1.2.3-2.4.4-3.6s.2-2.6.2-3.9a24.3,24.3,0,0,0-.3-3.8,17.8,17.8,0,0,0-.7-3.9,17.4,17.4,0,0,0-1.3-3.6l-.4-.6h0a.8.8,0,0,1-.2-.4,12.7,12.7,0,0,0-2-2.4l-1.2-1-.6-.3h-.3a1.7,1.7,0,0,0-1-.3,4.4,4.4,0,0,0-3.7.7l.9-.3h.9a5.5,5.5,0,0,1,1.8.1l.8.3h-.5l-.2.4h-.7v.2h-.1v.2h-.1a.3.3,0,0,1-.1.2h0c0,.1-.1.2-.1.3h0c-.1.1-.1.1-.1.2h0c-.1.1-.1.1-.1.2h-.1v.2h-.1c0,.1,0,.2-.1.2h0c0,.1,0,.2-.1.2h0v.2h0a.3.3,0,0,1-.1.2h0a.4.4,0,0,0-.1.3h0l-.3.7h0a.4.4,0,0,1-.1.3h0c0,.1-.1.2-.1.3h0c0,.1-.1.1-.1.2v.4h0c0,.1-.1.2-.1.3h0a.4.4,0,0,0-.1.3h0a.4.4,0,0,0-.1.3h0a.4.4,0,0,0-.1.3h0v1a.4.4,0,0,0-.1.3v.2a.3.3,0,0,0-.1.2V67a.3.3,0,0,0-.1.2v.4a.4.4,0,0,0-.1.3v.2c0,.1-.1.2-.1.3v.4a.3.3,0,0,1-.1.2v1.3h0a13.7,13.7,0,0,0-.2,1.9h0v.4h0v.5h0v.4h0v.7h0v4.4a5.4,5.4,0,0,0-2.1.5l-1,.7-.8.8A13.7,13.7,0,0,0,31.5,83.1ZM46.6,70.2,45.1,70c-1.9,0-4.6.8-7.6,3.3v-.9h0a.6.6,0,0,1,.1-.4h0v-.4h0a.8.8,0,0,1,.1-.4h0v-.3h0a.6.6,0,0,1,.1-.4h0l.3-2.5h0a.8.8,0,0,0,.1-.4h0c0-.2.1-.3.1-.4h0c.2-1.1.4-2,.6-2.9h0c.3-.9.5-1.7.8-2.5h0c0-.1,0-.2.1-.2h0a.3.3,0,0,1,.1-.2h0c.2-.6.4-1.1.5-1.5h.1v-.2h.1v-.2h.1v-.2h.1v-.2h.1v-.2h0l.3-.6h0a.1.1,0,0,1,.1-.1h.5c0-.1,0-.1.1-.1h.5a.1.1,0,0,1,.1-.1,8.8,8.8,0,0,1,3.2,3.4h0c.1.1.1.2.2.2l.4.8a36.2,36.2,0,0,1,1.3,3.5,23.2,23.2,0,0,1,.6,3.8c.1,1.1.2,2.3.2,3.4a4.5,4.5,0,0,1-1.8-.3m-9.3,7.1c0-1.1,0-2.1.1-3.2,3.1-2.6,5.9-3.4,7.7-3.4h1.2a10.7,10.7,0,0,0,2.1.4c0,1.1,0,2.3-.1,3.5a11,11,0,0,1-.2,1.8,9.9,9.9,0,0,1-.2,1.7H47l-1.2.3-1.1.4-1,.4a7.3,7.3,0,0,1-4.4,0l-1-.2h-1Z"/>
  <path class="a574f48d-10f1-4aaf-86bb-2b40130487b3" d="M65.7,48.9a47.1,47.1,0,0,0-4.2,15.9,5.1,5.1,0,0,1,.2-2.3c1.4-8,0-10.9-.3-11.4A7.5,7.5,0,0,1,65.7,48.9Z"/>
  <path class="a574f48d-10f1-4aaf-86bb-2b40130487b3" d="M37,79.4h0a5.9,5.9,0,0,0-5.2,3.2h0c1.7-5.5,3.6-3.4,3.8-8.7a96.8,96.8,0,0,1,1.9-11.4c1.3-6.1.3-7.5.2-7.6a5.4,5.4,0,0,1,4.6,0v.2C40.9,57.1,36.6,64.8,37,79.4Z"/>
  <path class="a574f48d-10f1-4aaf-86bb-2b40130487b3" d="M35.3,91c-.7,1.8-2.1,7.3,2,15.1,0,0-7.7,1.6-8.2,2.8s-1.2,13.4-1.1,17.6c-4.9-.3-8.5.8-9.1,4.2-.2-7.1,7.1-3.9,7.3-15.8.1-8,2.7-8.7,4.7-9.1s.2-4-.8-8-4.8-.6-5.6,0c.7-1.6,3.5-6,11.4-6.8h-.6Z"/>
  <path class="a574f48d-10f1-4aaf-86bb-2b40130487b3" d="M37,176.4c-.6-.2-8.8-9.1-13.3-19.7-3.5-8.4-5.7-19.1-5.3-23.2C19,136.1,24.5,158.8,37,176.4Z"/>
  <path d="M24.3,168.3"/>
  <path class="a574f48d-10f1-4aaf-86bb-2b40130487b3" d="M34.9,188.3h0s-4.2-2.2-7.5-8.3a27.7,27.7,0,0,1-3.1-11.5A52.1,52.1,0,0,0,34.9,188.3Z"/>
</svg>
